<?xml version="1.0" encoding="UTF-8" standalone="no"?><svg xmlns="http://www.w3.org/2000/svg" xmlns:xlink="http://www.w3.org/1999/xlink" contentScriptType="application/ecmascript" contentStyleType="text/css" height="212px" preserveAspectRatio="none" style="width:397px;height:212px;" version="1.1" viewBox="0 0 397 212" width="397px" zoomAndPan="magnify"><defs><filter height="300%" id="fsnhlpx" width="300%" x="-1" y="-1"><feGaussianBlur result="blurOut" stdDeviation="2.0"/><feColorMatrix in="blurOut" result="blurOut2" type="matrix" values="0 0 0 0 0 0 0 0 0 0 0 0 0 0 0 0 0 0 .4 0"/><feOffset dx="4.0" dy="4.0" in="blurOut2" result="blurOut3"/><feBlend in="SourceGraphic" in2="blurOut3" mode="normal"/></filter></defs><g><!--entity quality_engineer--><ellipse cx="65" cy="18" fill="#FEFECE" filter="url(#fsnhlpx)" rx="8" ry="8" style="stroke: #A80036; stroke-width: 2.0;"/><path d="M65,26 L65,53 M52,34 L78,34 M65,53 L52,68 M65,53 L78,68 " fill="#FEFECE" filter="url(#fsnhlpx)" style="stroke: #A80036; stroke-width: 2.0;"/><text fill="#000000" font-family="sans-serif" font-size="14" lengthAdjust="spacingAndGlyphs" textLength="118" x="6" y="87.9951">Quality Engineer</text><!--entity developer--><ellipse cx="359" cy="18" fill="#FEFECE" filter="url(#fsnhlpx)" rx="8" ry="8" style="stroke: #A80036; stroke-width: 2.0;"/><path d="M359,26 L359,53 M346,34 L372,34 M359,53 L346,68 M359,53 L372,68 " fill="#FEFECE" filter="url(#fsnhlpx)" style="stroke: #A80036; stroke-width: 2.0;"/><text fill="#000000" font-family="sans-serif" font-size="14" lengthAdjust="spacingAndGlyphs" textLength="74" x="322" y="87.9951">Developer</text><!--entity system--><rect fill="#FEFECE" filter="url(#fsnhlpx)" height="36.2969" style="stroke: #A80036; stroke-width: 1.5;" width="128" x="159" y="31.5"/><rect fill="#FEFECE" height="5" style="stroke: #A80036; stroke-width: 1.5;" width="10" x="154" y="36.5"/><rect fill="#FEFECE" height="5" style="stroke: #A80036; stroke-width: 1.5;" width="10" x="154" y="57.7969"/><text fill="#000000" font-family="sans-serif" font-size="14" lengthAdjust="spacingAndGlyphs" textLength="108" x="169" y="54.4951">OpenFastTrace</text><!--entity continuous_integration--><rect fill="#FEFECE" filter="url(#fsnhlpx)" height="52.5938" style="stroke: #A80036; stroke-width: 1.5;" width="100" x="173" y="151"/><rect fill="#FEFECE" height="5" style="stroke: #A80036; stroke-width: 1.5;" width="10" x="168" y="156"/><rect fill="#FEFECE" height="5" style="stroke: #A80036; stroke-width: 1.5;" width="10" x="168" y="193.5938"/><text fill="#000000" font-family="sans-serif" font-size="14" lengthAdjust="spacingAndGlyphs" textLength="80" x="183" y="173.9951">Continuous</text><text fill="#000000" font-family="sans-serif" font-size="14" lengthAdjust="spacingAndGlyphs" textLength="78" x="183" y="190.292">Integration</text><path d="M287.016,49.5 C298.638,49.5 310.261,49.5 321.883,49.5 " fill="none" style="stroke: #A80036; stroke-width: 1.0;"/><path d="M124.25,49.5 C135.822,49.5 147.395,49.5 158.967,49.5 " fill="none" style="stroke: #A80036; stroke-width: 1.0;"/><path d="M223,67.756 C223,89.188 223,125.9466 223,150.7253 " fill="none" style="stroke: #A80036; stroke-width: 1.0;"/></g></svg>