<?xml version="1.0" encoding="UTF-8" standalone="no"?><svg xmlns="http://www.w3.org/2000/svg" xmlns:xlink="http://www.w3.org/1999/xlink" contentScriptType="application/ecmascript" contentStyleType="text/css" height="423px" preserveAspectRatio="none" style="width:470px;height:423px;" version="1.1" viewBox="0 0 470 423" width="470px" zoomAndPan="magnify"><defs/><g><!--cluster ##36--><rect fill="#F8F8F8" height="37.6094" style="stroke: #383838; stroke-width: 1.5;" width="117" x="195.5" y="40"/><text fill="#000000" font-family="sans-serif" font-size="12" lengthAdjust="spacingAndGlyphs" textLength="54" x="227" y="53.1387">: Feature</text><line style="stroke: #383838; stroke-width: 1.5;" x1="196.5" x2="311.5" y1="57.9688" y2="57.9688"/><text fill="#000000" font-family="sans-serif" font-size="10" lengthAdjust="spacingAndGlyphs" textLength="105" x="201.5" y="71.251">artifactType = "feat"</text><rect fill="#F8F8F8" height="37.6094" style="stroke: #383838; stroke-width: 1.5;" width="131" x="188.5" y="155"/><text fill="#000000" font-family="sans-serif" font-size="12" lengthAdjust="spacingAndGlyphs" textLength="117" x="195.5" y="168.1387">: User Requirement</text><line style="stroke: #383838; stroke-width: 1.5;" x1="189.5" x2="318.5" y1="172.9688" y2="172.9688"/><text fill="#000000" font-family="sans-serif" font-size="10" lengthAdjust="spacingAndGlyphs" textLength="101" x="194.5" y="186.251">artifactType = "req"</text><rect fill="#F8F8F8" height="37.6094" style="stroke: #383838; stroke-width: 1.5;" width="145" x="181.5" y="270"/><text fill="#000000" font-family="sans-serif" font-size="12" lengthAdjust="spacingAndGlyphs" textLength="131" x="188.5" y="283.1387">: Design Requirement</text><line style="stroke: #383838; stroke-width: 1.5;" x1="182.5" x2="325.5" y1="287.9688" y2="287.9688"/><text fill="#000000" font-family="sans-serif" font-size="10" lengthAdjust="spacingAndGlyphs" textLength="102" x="187.5" y="301.251">artifactType = "dsn"</text><rect fill="#F8F8F8" height="37.6094" style="stroke: #383838; stroke-width: 1.5;" width="119" x="38.5" y="385"/><text fill="#000000" font-family="sans-serif" font-size="12" lengthAdjust="spacingAndGlyphs" textLength="104" x="46" y="398.1387">: Implementation</text><line style="stroke: #383838; stroke-width: 1.5;" x1="39.5" x2="156.5" y1="402.9688" y2="402.9688"/><text fill="#000000" font-family="sans-serif" font-size="10" lengthAdjust="spacingAndGlyphs" textLength="107" x="44.5" y="416.251">artifactType = "impl"</text><rect fill="#F8F8F8" height="37.6094" style="stroke: #383838; stroke-width: 1.5;" width="122" x="193" y="385"/><text fill="#000000" font-family="sans-serif" font-size="12" lengthAdjust="spacingAndGlyphs" textLength="62" x="223" y="398.1387">: Unit Test</text><line style="stroke: #383838; stroke-width: 1.5;" x1="194" x2="314" y1="402.9688" y2="402.9688"/><text fill="#000000" font-family="sans-serif" font-size="10" lengthAdjust="spacingAndGlyphs" textLength="110" x="199" y="416.251">artifactType = "utest"</text><rect fill="#F8F8F8" height="37.6094" style="stroke: #383838; stroke-width: 1.5;" width="119" x="350.5" y="385"/><text fill="#000000" font-family="sans-serif" font-size="12" lengthAdjust="spacingAndGlyphs" textLength="104" x="358" y="398.1387">: Integration Test</text><line style="stroke: #383838; stroke-width: 1.5;" x1="351.5" x2="468.5" y1="402.9688" y2="402.9688"/><text fill="#000000" font-family="sans-serif" font-size="10" lengthAdjust="spacingAndGlyphs" textLength="107" x="356.5" y="416.251">artifactType = "itest"</text><path d="M254,83.332 C254,104.563 254,135.468 254,154.89 " fill="none" style="stroke: #383838; stroke-width: 1.0;"/><polygon fill="#383838" points="254,78.155,250,87.155,254,83.155,258,87.155,254,78.155" style="stroke: #383838; stroke-width: 1.0;"/><text fill="#000000" font-family="sans-serif" font-size="13" lengthAdjust="spacingAndGlyphs" textLength="44" x="255" y="121.0669">details</text><path d="M254,198.332 C254,219.563 254,250.468 254,269.89 " fill="none" style="stroke: #383838; stroke-width: 1.0;"/><polygon fill="#383838" points="254,193.155,250,202.155,254,198.155,258,202.155,254,193.155" style="stroke: #383838; stroke-width: 1.0;"/><text fill="#000000" font-family="sans-serif" font-size="13" lengthAdjust="spacingAndGlyphs" textLength="44" x="255" y="236.0669">details</text><path d="M211.306,310.384 C196.449,318.221 180.007,327.764 166,338 C146.881,351.972 127.605,370.9696 114.483,384.817 " fill="none" style="stroke: #383838; stroke-width: 1.0;"/><polygon fill="#383838" points="215.861,308.008,206.0313,308.6224,211.4275,310.3198,209.7301,315.7159,215.861,308.008" style="stroke: #383838; stroke-width: 1.0;"/><text fill="#000000" font-family="sans-serif" font-size="13" lengthAdjust="spacingAndGlyphs" textLength="78" x="167" y="351.0669">implements</text><path d="M283.277,311.207 C312.61,332.455 357.277,364.8094 384.998,384.8897 " fill="none" style="stroke: #383838; stroke-width: 1.0;"/><polygon fill="#383838" points="279.064,308.155,284.0073,316.6734,283.1137,311.0876,288.6995,310.194,279.064,308.155" style="stroke: #383838; stroke-width: 1.0;"/><text fill="#000000" font-family="sans-serif" font-size="13" lengthAdjust="spacingAndGlyphs" textLength="49" x="342" y="351.0669">verifies</text><path d="M254,313.332 C254,334.563 254,365.4678 254,384.8897 " fill="none" style="stroke: #383838; stroke-width: 1.0;"/><polygon fill="#383838" points="254,308.155,250,317.155,254,313.155,258,317.155,254,308.155" style="stroke: #383838; stroke-width: 1.0;"/><text fill="#000000" font-family="sans-serif" font-size="13" lengthAdjust="spacingAndGlyphs" textLength="49" x="255" y="351.0669">verifies</text></g></svg>