<?xml version="1.0" encoding="UTF-8" standalone="no"?><svg xmlns="http://www.w3.org/2000/svg" xmlns:xlink="http://www.w3.org/1999/xlink" contentScriptType="application/ecmascript" contentStyleType="text/css" height="1725px" preserveAspectRatio="none" style="width:470px;height:1725px;" version="1.1" viewBox="0 0 470 1725" width="470px" zoomAndPan="magnify"><defs/><g><!--cluster ##36--><rect fill="#F8F8F8" height="37.6094" style="stroke: #383838; stroke-width: 1.5;" width="114" x="195" y="40"/><text fill="#000000" font-family="sans-serif" font-size="12" lengthAdjust="spacingAndGlyphs" textLength="57" x="223.5" y="53.1387">: Feature</text><line style="stroke: #383838; stroke-width: 1.5;" x1="196" x2="308" y1="57.9688" y2="57.9688"/><text fill="#000000" font-family="sans-serif" font-size="10" lengthAdjust="spacingAndGlyphs" textLength="102" x="201" y="71.251">artifactType = "feat"</text><rect fill="#F8F8F8" height="37.6094" style="stroke: #383838; stroke-width: 1.5;" width="135" x="184.5" y="589"/><text fill="#000000" font-family="sans-serif" font-size="12" lengthAdjust="spacingAndGlyphs" textLength="121" x="191.5" y="602.1387">: User Requirement</text><line style="stroke: #383838; stroke-width: 1.5;" x1="185.5" x2="318.5" y1="606.9688" y2="606.9688"/><text fill="#000000" font-family="sans-serif" font-size="10" lengthAdjust="spacingAndGlyphs" textLength="98" x="190.5" y="620.251">artifactType = "req"</text><rect fill="#F8F8F8" height="37.6094" style="stroke: #383838; stroke-width: 1.5;" width="149" x="177.5" y="1138"/><text fill="#000000" font-family="sans-serif" font-size="12" lengthAdjust="spacingAndGlyphs" textLength="135" x="184.5" y="1151.1387">: Design Requirement</text><line style="stroke: #383838; stroke-width: 1.5;" x1="178.5" x2="325.5" y1="1155.9688" y2="1155.9688"/><text fill="#000000" font-family="sans-serif" font-size="10" lengthAdjust="spacingAndGlyphs" textLength="99" x="183.5" y="1169.251">artifactType = "dsn"</text><rect fill="#F8F8F8" height="37.6094" style="stroke: #383838; stroke-width: 1.5;" width="119" x="38.5" y="1687"/><text fill="#000000" font-family="sans-serif" font-size="12" lengthAdjust="spacingAndGlyphs" textLength="105" x="45.5" y="1700.1387">: Implementation</text><line style="stroke: #383838; stroke-width: 1.5;" x1="39.5" x2="156.5" y1="1704.9688" y2="1704.9688"/><text fill="#000000" font-family="sans-serif" font-size="10" lengthAdjust="spacingAndGlyphs" textLength="102" x="44.5" y="1718.251">artifactType = "impl"</text><rect fill="#F8F8F8" height="37.6094" style="stroke: #383838; stroke-width: 1.5;" width="119" x="192.5" y="1687"/><text fill="#000000" font-family="sans-serif" font-size="12" lengthAdjust="spacingAndGlyphs" textLength="64" x="220" y="1700.1387">: Unit Test</text><line style="stroke: #383838; stroke-width: 1.5;" x1="193.5" x2="310.5" y1="1704.9688" y2="1704.9688"/><text fill="#000000" font-family="sans-serif" font-size="10" lengthAdjust="spacingAndGlyphs" textLength="107" x="198.5" y="1718.251">artifactType = "utest"</text><rect fill="#F8F8F8" height="37.6094" style="stroke: #383838; stroke-width: 1.5;" width="122" x="347" y="1687"/><text fill="#000000" font-family="sans-serif" font-size="12" lengthAdjust="spacingAndGlyphs" textLength="108" x="354" y="1700.1387">: Integration Test</text><line style="stroke: #383838; stroke-width: 1.5;" x1="348" x2="468" y1="1704.9688" y2="1704.9688"/><text fill="#000000" font-family="sans-serif" font-size="10" lengthAdjust="spacingAndGlyphs" textLength="103" x="353" y="1718.251">artifactType = "itest"</text><path d="M252,83.3898 C252,99.3524 252,120.6656 252,139.5 C252,139.5 252,139.5 252,527.5 C252,548.4635 252,572.4979 252,588.8072 " fill="none" style="stroke: #383838; stroke-width: 1.0;"/><polygon fill="#383838" points="252,78.1928,248,87.1928,252,83.1928,256,87.1928,252,78.1928" style="stroke: #383838; stroke-width: 1.0;"/><text fill="#000000" font-family="sans-serif" font-size="13" lengthAdjust="spacingAndGlyphs" textLength="42" x="253" y="338.0669">details</text><path d="M252,632.3898 C252,648.3524 252,669.6656 252,688.5 C252,688.5 252,688.5 252,1076.5 C252,1097.4635 252,1121.4979 252,1137.8072 " fill="none" style="stroke: #383838; stroke-width: 1.0;"/><polygon fill="#383838" points="252,627.1928,248,636.1928,252,632.1928,256,636.1928,252,627.1928" style="stroke: #383838; stroke-width: 1.0;"/><text fill="#000000" font-family="sans-serif" font-size="13" lengthAdjust="spacingAndGlyphs" textLength="42" x="253" y="887.0669">details</text><path d="M172.4822,1169.8973 C136.1179,1180.8 101,1200.8235 101,1237.5 C101,1237.5 101,1237.5 101,1625.5 C101,1646.4781 99.97,1670.51 99.1171,1686.8147 " fill="none" style="stroke: #383838; stroke-width: 1.0;"/><polygon fill="#383838" points="177.3847,1168.4833,167.6287,1167.1342,172.5805,1169.869,169.8458,1174.8208,177.3847,1168.4833" style="stroke: #383838; stroke-width: 1.0;"/><text fill="#000000" font-family="sans-serif" font-size="13" lengthAdjust="spacingAndGlyphs" textLength="76" x="102" y="1436.0669">implements</text><path d="M331.559,1175.1343 C361.299,1187.0306 388,1206.3774 388,1237.5 C388,1237.5 388,1237.5 388,1625.5 C388,1646.9568 394.7752,1670.7068 400.4389,1686.8118 " fill="none" style="stroke: #383838; stroke-width: 1.0;"/><polygon fill="#383838" points="326.7635,1173.2883,333.7257,1180.2545,331.4297,1175.0846,336.5997,1172.7886,326.7635,1173.2883" style="stroke: #383838; stroke-width: 1.0;"/><text fill="#000000" font-family="sans-serif" font-size="13" lengthAdjust="spacingAndGlyphs" textLength="45" x="389" y="1436.0669">verifies</text><path d="M252,1181.3898 C252,1197.3524 252,1218.6656 252,1237.5 C252,1237.5 252,1237.5 252,1625.5 C252,1646.4635 252,1670.4979 252,1686.8072 " fill="none" style="stroke: #383838; stroke-width: 1.0;"/><polygon fill="#383838" points="252,1176.1928,248,1185.1928,252,1181.1928,256,1185.1928,252,1176.1928" style="stroke: #383838; stroke-width: 1.0;"/><text fill="#000000" font-family="sans-serif" font-size="13" lengthAdjust="spacingAndGlyphs" textLength="45" x="253" y="1436.0669">verifies</text></g></svg>