<?xml version="1.0" encoding="UTF-8" standalone="no"?><svg xmlns="http://www.w3.org/2000/svg" xmlns:xlink="http://www.w3.org/1999/xlink" contentScriptType="application/ecmascript" contentStyleType="text/css" height="535px" preserveAspectRatio="none" style="width:742px;height:535px;" version="1.1" viewBox="0 0 742 535" width="742px" zoomAndPan="magnify"><defs/><g><rect fill="#F8F8F8" height="37.6094" style="stroke:#383838;stroke-width:1.5;" width="167" x="292" y="24.5"/><text fill="#000000" font-family="sans-serif" font-size="12" lengthAdjust="spacing" text-decoration="underline" textLength="137" x="307" y="37.6387">: System Specification</text><line style="stroke:#383838;stroke-width:1.5;" x1="293" x2="458" y1="42.4688" y2="42.4688"/><text fill="#000000" font-family="sans-serif" font-size="10" lengthAdjust="spacing" textLength="155" x="298" y="55.751">artifactTypes[] = ["feat", "req"]</text><rect fill="#F8F8F8" height="37.6094" style="stroke:#383838;stroke-width:1.5;" width="136" x="307.5" y="179.5"/><text fill="#000000" font-family="sans-serif" font-size="12" lengthAdjust="spacing" text-decoration="underline" textLength="85" x="333" y="192.6387">: Architecture</text><line style="stroke:#383838;stroke-width:1.5;" x1="308.5" x2="442.5" y1="197.4688" y2="197.4688"/><text fill="#000000" font-family="sans-serif" font-size="10" lengthAdjust="spacing" textLength="124" x="313.5" y="210.751">artifactTypes[] = ["arch"]</text><rect fill="#F8F8F8" height="60.8906" style="stroke:#383838;stroke-width:1.5;" width="203" x="533" y="314.5"/><text fill="#000000" font-family="sans-serif" font-size="12" lengthAdjust="spacing" text-decoration="underline" textLength="82" x="540" y="327.6387">Client Design</text><text fill="#000000" font-family="sans-serif" font-size="12" lengthAdjust="spacing" textLength="107" x="622" y="327.6387">: Detailed Design</text><line style="stroke:#383838;stroke-width:1.5;" x1="534" x2="735" y1="332.4688" y2="332.4688"/><text fill="#000000" font-family="sans-serif" font-size="10" lengthAdjust="spacing" textLength="120" x="539" y="345.751">artifactTypes[] = ["dsn"]</text><text fill="#000000" font-family="sans-serif" font-size="10" lengthAdjust="spacing" textLength="171" x="539" y="357.3916">coveredTags[] = ["HwAbstraction",</text><text fill="#000000" font-family="sans-serif" font-size="10" lengthAdjust="spacing" textLength="159" x="539" y="369.0322">"HttpClient", "LocalStorage", ...]</text><rect fill="#F8F8F8" height="60.8906" style="stroke:#383838;stroke-width:1.5;" width="244" x="253.5" y="314.5"/><text fill="#000000" font-family="sans-serif" font-size="12" lengthAdjust="spacing" text-decoration="underline" textLength="123" x="260.5" y="327.6387">Web Service Design</text><text fill="#000000" font-family="sans-serif" font-size="12" lengthAdjust="spacing" textLength="107" x="383.5" y="327.6387">: Detailed Design</text><line style="stroke:#383838;stroke-width:1.5;" x1="254.5" x2="496.5" y1="332.4688" y2="332.4688"/><text fill="#000000" font-family="sans-serif" font-size="10" lengthAdjust="spacing" textLength="120" x="259.5" y="345.751">artifactTypes[] = ["dsn"]</text><text fill="#000000" font-family="sans-serif" font-size="10" lengthAdjust="spacing" textLength="211" x="259.5" y="357.3916">coveredTags[] = ["AuthenticationProvider",</text><text fill="#000000" font-family="sans-serif" font-size="10" lengthAdjust="spacing" textLength="191" x="259.5" y="369.0322">"ServiceDiscovery", "MapProvider", ...]</text><rect fill="#F8F8F8" height="60.8906" style="stroke:#383838;stroke-width:1.5;" width="211" x="7" y="314.5"/><text fill="#000000" font-family="sans-serif" font-size="12" lengthAdjust="spacing" text-decoration="underline" textLength="90" x="14" y="327.6387">Web UI Design</text><text fill="#000000" font-family="sans-serif" font-size="12" lengthAdjust="spacing" textLength="107" x="104" y="327.6387">: Detailed Design</text><line style="stroke:#383838;stroke-width:1.5;" x1="8" x2="217" y1="332.4688" y2="332.4688"/><text fill="#000000" font-family="sans-serif" font-size="10" lengthAdjust="spacing" textLength="120" x="13" y="345.751">artifactTypes[] = ["dsn"]</text><text fill="#000000" font-family="sans-serif" font-size="10" lengthAdjust="spacing" textLength="150" x="13" y="357.3916">coveredTags[] = ["WebPortal",</text><text fill="#000000" font-family="sans-serif" font-size="10" lengthAdjust="spacing" textLength="107" x="13" y="369.0322">"QrCodeScanner", ...]</text><!--MD5=[c56d4f8bc9f6d431a4a3b0cc16c0da4e]
entity andrea--><ellipse cx="209.5" cy="169" fill="#F8F8F8" rx="8" ry="8" style="stroke:#383838;stroke-width:1.5;"/><path d="M209.5,177 L209.5,204 M196.5,185 L222.5,185 M209.5,204 L196.5,219 M209.5,204 L222.5,219 " fill="none" style="stroke:#383838;stroke-width:1.5;"/><text fill="#000000" font-family="sans-serif" font-size="14" lengthAdjust="spacing" textLength="49" x="185" y="234.4951">Andrea</text><!--MD5=[35d9fefc638160f8876fc4a74735c635]
entity curt--><ellipse cx="586.5" cy="462" fill="#F8F8F8" rx="8" ry="8" style="stroke:#383838;stroke-width:1.5;"/><path d="M586.5,470 L586.5,497 M573.5,478 L599.5,478 M586.5,497 L573.5,512 M586.5,497 L599.5,512 " fill="none" style="stroke:#383838;stroke-width:1.5;"/><text fill="#000000" font-family="sans-serif" font-size="14" lengthAdjust="spacing" textLength="29" x="572" y="527.4951">Curt</text><!--MD5=[f2b7302e6347314163b3d5f5b2f986fa]
entity cloe--><ellipse cx="665.5" cy="462" fill="#F8F8F8" rx="8" ry="8" style="stroke:#383838;stroke-width:1.5;"/><path d="M665.5,470 L665.5,497 M652.5,478 L678.5,478 M665.5,497 L652.5,512 M665.5,497 L678.5,512 " fill="none" style="stroke:#383838;stroke-width:1.5;"/><text fill="#000000" font-family="sans-serif" font-size="14" lengthAdjust="spacing" textLength="31" x="650" y="527.4951">Cloe</text><!--MD5=[2e0ba670631840f9f656d2045673e9d9]
entity wan--><ellipse cx="335.5" cy="462" fill="#F8F8F8" rx="8" ry="8" style="stroke:#383838;stroke-width:1.5;"/><path d="M335.5,470 L335.5,497 M322.5,478 L348.5,478 M335.5,497 L322.5,512 M335.5,497 L348.5,512 " fill="none" style="stroke:#383838;stroke-width:1.5;"/><text fill="#000000" font-family="sans-serif" font-size="14" lengthAdjust="spacing" textLength="30" x="320.5" y="527.4951">Wan</text><!--MD5=[a1fb9460572d7a1e2316a9509f261eb4]
entity walter--><ellipse cx="414.5" cy="462" fill="#F8F8F8" rx="8" ry="8" style="stroke:#383838;stroke-width:1.5;"/><path d="M414.5,470 L414.5,497 M401.5,478 L427.5,478 M414.5,497 L401.5,512 M414.5,497 L427.5,512 " fill="none" style="stroke:#383838;stroke-width:1.5;"/><text fill="#000000" font-family="sans-serif" font-size="14" lengthAdjust="spacing" textLength="43" x="393" y="527.4951">Walter</text><!--MD5=[b2aa12ac5324ca04ff23ef52c38803d8]
entity soeren--><ellipse cx="193.5" cy="14" fill="#F8F8F8" rx="8" ry="8" style="stroke:#383838;stroke-width:1.5;"/><path d="M193.5,22 L193.5,49 M180.5,30 L206.5,30 M193.5,49 L180.5,64 M193.5,49 L206.5,64 " fill="none" style="stroke:#383838;stroke-width:1.5;"/><text fill="#000000" font-family="sans-serif" font-size="14" lengthAdjust="spacing" textLength="50" x="168.5" y="79.4951">Soeren</text><!--MD5=[959f6edaef185979fc598034cb21ddf7]
entity uma--><ellipse cx="112.5" cy="462" fill="#F8F8F8" rx="8" ry="8" style="stroke:#383838;stroke-width:1.5;"/><path d="M112.5,470 L112.5,497 M99.5,478 L125.5,478 M112.5,497 L99.5,512 M112.5,497 L125.5,512 " fill="none" style="stroke:#383838;stroke-width:1.5;"/><text fill="#000000" font-family="sans-serif" font-size="14" lengthAdjust="spacing" textLength="31" x="97" y="527.4951">Uma</text><!--MD5=[2bfa838ed91bad20c63cbca0cd0d29a7]
reverse link sys_spec to arch--><path codeLine="32" d="M375.5,67.73 C375.5,98.34 375.5,151.55 375.5,179.37 " fill="none" id="sys_spec-backto-arch" style="stroke:#383838;stroke-width:1.0;"/><polygon fill="#383838" points="375.5,62.65,371.5,71.65,375.5,67.65,379.5,71.65,375.5,62.65" style="stroke:#383838;stroke-width:1.0;"/><text fill="#000000" font-family="sans-serif" font-size="13" lengthAdjust="spacing" textLength="42" x="376.5" y="125.5669">covers</text><!--MD5=[bb71b9e8156db3275acd186ddf7b5ad2]
reverse link arch to client--><path codeLine="33" d="M412.23,219.99 C456.46,244.67 531.11,286.31 581.56,314.46 " fill="none" id="arch-backto-client" style="stroke:#383838;stroke-width:1.0;"/><polygon fill="#383838" points="407.78,217.51,413.6742,225.4004,412.1413,219.9552,417.5865,218.4223,407.78,217.51" style="stroke:#383838;stroke-width:1.0;"/><text fill="#000000" font-family="sans-serif" font-size="13" lengthAdjust="spacing" textLength="79" x="521.5" y="280.5669">covers parts</text><!--MD5=[ff8bb40aa15931cc3de9f91aa5b54f54]
reverse link arch to service--><path codeLine="34" d="M375.5,222.59 C375.5,247.52 375.5,287.28 375.5,314.46 " fill="none" id="arch-backto-service" style="stroke:#383838;stroke-width:1.0;"/><polygon fill="#383838" points="375.5,217.51,371.5,226.51,375.5,222.51,379.5,226.51,375.5,217.51" style="stroke:#383838;stroke-width:1.0;"/><text fill="#000000" font-family="sans-serif" font-size="13" lengthAdjust="spacing" textLength="79" x="376.5" y="280.5669">covers parts</text><!--MD5=[eeb7fc42d8b98fd09560a6d14f9a3d20]
reverse link arch to ui--><path codeLine="35" d="M338.21,219.99 C293.29,244.67 217.49,286.31 166.26,314.46 " fill="none" id="arch-backto-ui" style="stroke:#383838;stroke-width:1.0;"/><polygon fill="#383838" points="342.72,217.51,332.9046,218.3215,338.3338,219.9103,336.7451,225.3394,342.72,217.51" style="stroke:#383838;stroke-width:1.0;"/><text fill="#000000" font-family="sans-serif" font-size="13" lengthAdjust="spacing" textLength="79" x="244.5" y="280.5669">covers parts</text><!--MD5=[25cb9d4c040facf224504ff2ae2404e6]
link soeren to sys_spec--><path codeLine="37" d="M218.81,43.5 C236.68,43.5 261.79,43.5 286.68,43.5 " fill="none" id="soeren-to-sys_spec" style="stroke:#383838;stroke-width:1.0;"/><polygon fill="#383838" points="291.99,43.5,282.99,39.5,286.99,43.5,282.99,47.5,291.99,43.5" style="stroke:#383838;stroke-width:1.0;"/><text fill="#000000" font-family="sans-serif" font-size="13" lengthAdjust="spacing" textLength="37" x="236.75" y="36.5669">writes</text><!--MD5=[3217e931cf6e730545dc4bf0db80c066]
link andrea to arch--><path codeLine="38" d="M234.35,198.5 C252.42,198.5 277.88,198.5 302.21,198.5 " fill="none" id="andrea-to-arch" style="stroke:#383838;stroke-width:1.0;"/><polygon fill="#383838" points="307.38,198.5,298.38,194.5,302.38,198.5,298.38,202.5,307.38,198.5" style="stroke:#383838;stroke-width:1.0;"/><text fill="#000000" font-family="sans-serif" font-size="13" lengthAdjust="spacing" textLength="37" x="252.25" y="191.5669">writes</text><!--MD5=[b1f9baf3c4ed6bf62619053c14df61db]
reverse link client to curt--><path codeLine="39" d="M612.34,380 C607.84,388.09 603.56,396.89 600.5,405.5 C595.25,420.3 591.95,437.26 589.88,452.11 " fill="none" id="client-backto-curt" style="stroke:#383838;stroke-width:1.0;"/><polygon fill="#383838" points="614.85,375.58,606.9221,381.4237,612.377,379.9256,613.8751,385.3805,614.85,375.58" style="stroke:#383838;stroke-width:1.0;"/><text fill="#000000" font-family="sans-serif" font-size="13" lengthAdjust="spacing" textLength="37" x="601.5" y="418.5669">writes</text><!--MD5=[0e09a0aa55b1f6a7ee3eab9f8d6eccb7]
reverse link client to cloe--><path codeLine="40" d="M641.94,380.67 C646.58,402.31 652.56,430.18 657.33,452.43 " fill="none" id="client-backto-cloe" style="stroke:#383838;stroke-width:1.0;"/><polygon fill="#383838" points="640.85,375.59,638.8438,385.2324,641.9074,380.4769,646.6629,383.5405,640.85,375.59" style="stroke:#383838;stroke-width:1.0;"/><text fill="#000000" font-family="sans-serif" font-size="13" lengthAdjust="spacing" textLength="37" x="650.5" y="418.5669">writes</text><!--MD5=[8e3acc75a0eee9bb246d06fcbc9bed43]
reverse link service to wan--><path codeLine="41" d="M355.52,380.6 C351.64,388.56 348.01,397.15 345.5,405.5 C341.01,420.44 338.52,437.43 337.14,452.26 " fill="none" id="service-backto-wan" style="stroke:#383838;stroke-width:1.0;"/><polygon fill="#383838" points="357.95,375.73,350.3394,381.9813,355.7082,380.1993,357.4902,385.5681,357.95,375.73" style="stroke:#383838;stroke-width:1.0;"/><text fill="#000000" font-family="sans-serif" font-size="13" lengthAdjust="spacing" textLength="37" x="346.5" y="418.5669">writes</text><!--MD5=[56a166dc273ce48f2c7c94888ea21089]
reverse link service to walter--><path codeLine="42" d="M384.86,380.67 C390.7,402.31 398.22,430.18 404.22,452.43 " fill="none" id="service-backto-walter" style="stroke:#383838;stroke-width:1.0;"/><polygon fill="#383838" points="383.49,375.59,381.9673,385.3204,384.7899,380.4181,389.6922,383.2406,383.49,375.59" style="stroke:#383838;stroke-width:1.0;"/><text fill="#000000" font-family="sans-serif" font-size="13" lengthAdjust="spacing" textLength="37" x="395.5" y="418.5669">writes</text><!--MD5=[0df5ff20fb31c4d120cda71c10c64137]
reverse link ui to uma--><path codeLine="43" d="M112.5,380.67 C112.5,402.31 112.5,430.18 112.5,452.43 " fill="none" id="ui-backto-uma" style="stroke:#383838;stroke-width:1.0;"/><polygon fill="#383838" points="112.5,375.59,108.5,384.59,112.5,380.59,116.5,384.59,112.5,375.59" style="stroke:#383838;stroke-width:1.0;"/><text fill="#000000" font-family="sans-serif" font-size="13" lengthAdjust="spacing" textLength="37" x="113.5" y="418.5669">writes</text><!--MD5=[f03e0bf1b41044c674b4f3ab5116cd41]
@startuml
!include ../clean.skin
!pragma horizontalLineBetweenDifferentPackageAllowed
allow_mixing

together {
    object ": System Specification" as sys_spec {
        artifactTypes[] = ["feat", "req"]
    }
    object ": Architecture" as arch {
        artifactTypes[] = ["arch"]
    }
    object "Client Design: Detailed Design" as client {
        artifactTypes[] = ["dsn"]
        coveredTags[] = ["HwAbstraction",\n"HttpClient", "LocalStorage", ...]
    }
    object "Web Service Design: Detailed Design" as service {
        artifactTypes[] = ["dsn"]
        coveredTags[] = ["AuthenticationProvider",\n"ServiceDiscovery", "MapProvider", ...]
    }
    object "Web UI Design: Detailed Design" as ui {
        artifactTypes[] = ["dsn"]
        coveredTags[] = ["WebPortal",\n"QrCodeScanner", ...]
    }
    actor "Andrea" as andrea
    actor "Curt" as curt
    actor "Cloe" as cloe
    actor "Wan" as wan
    actor "Walter" as walter
    actor "Soeren" as soeren
    actor "Uma" as uma

    arch -u-> sys_spec : covers
    client -u-> arch : covers parts
    service -u-> arch : covers parts
    ui -u-> arch : covers parts
    
    soeren -r-> sys_spec : writes
    andrea -r-> arch : writes
    curt -u-> client : writes
    cloe -u-> client : writes
    wan -u-> service : writes
    walter -u-> service : writes
    uma -u-> ui : writes
    
}

@enduml

@startuml
skinparam monochrome true
skinparam style strictuml

!pragma horizontalLineBetweenDifferentPackageAllowed

hide empty methods
hide empty attributes

!pragma horizontalLineBetweenDifferentPackageAllowed
allow_mixing

together {
    object ": System Specification" as sys_spec {
        artifactTypes[] = ["feat", "req"]
    }
    object ": Architecture" as arch {
        artifactTypes[] = ["arch"]
    }
    object "Client Design: Detailed Design" as client {
        artifactTypes[] = ["dsn"]
        coveredTags[] = ["HwAbstraction",\n"HttpClient", "LocalStorage", ...]
    }
    object "Web Service Design: Detailed Design" as service {
        artifactTypes[] = ["dsn"]
        coveredTags[] = ["AuthenticationProvider",\n"ServiceDiscovery", "MapProvider", ...]
    }
    object "Web UI Design: Detailed Design" as ui {
        artifactTypes[] = ["dsn"]
        coveredTags[] = ["WebPortal",\n"QrCodeScanner", ...]
    }
    actor "Andrea" as andrea
    actor "Curt" as curt
    actor "Cloe" as cloe
    actor "Wan" as wan
    actor "Walter" as walter
    actor "Soeren" as soeren
    actor "Uma" as uma

    arch -u-> sys_spec : covers
    client -u-> arch : covers parts
    service -u-> arch : covers parts
    ui -u-> arch : covers parts
    
    soeren -r-> sys_spec : writes
    andrea -r-> arch : writes
    curt -u-> client : writes
    cloe -u-> client : writes
    wan -u-> service : writes
    walter -u-> service : writes
    uma -u-> ui : writes
    
}

@enduml

PlantUML version 1.2021.5(Sun Apr 25 13:20:28 CEST 2021)
(GPL source distribution)
Java Runtime: OpenJDK Runtime Environment
JVM: OpenJDK 64-Bit Server VM
Default Encoding: UTF-8
Language: en
Country: US
--></g></svg>