<?xml version="1.0" encoding="UTF-8" standalone="no"?><svg xmlns="http://www.w3.org/2000/svg" xmlns:xlink="http://www.w3.org/1999/xlink" contentScriptType="application/ecmascript" contentStyleType="text/css" height="566px" preserveAspectRatio="none" style="width:745px;height:566px;" version="1.1" viewBox="0 0 745 566" width="745px" zoomAndPan="magnify"><defs/><g><!--cluster ##2--><rect fill="#F8F8F8" height="37.6094" style="stroke: #383838; stroke-width: 1.5;" width="170" x="311" y="60.5"/><text fill="#000000" font-family="sans-serif" font-size="12" lengthAdjust="spacingAndGlyphs" textLength="134" x="329" y="73.6387">: System Specification</text><line style="stroke: #383838; stroke-width: 1.5;" x1="312" x2="480" y1="78.4688" y2="78.4688"/><text fill="#000000" font-family="sans-serif" font-size="10" lengthAdjust="spacingAndGlyphs" textLength="158" x="317" y="91.751">artifactTypes[] = ["feat", "req"]</text><rect fill="#F8F8F8" height="37.6094" style="stroke: #383838; stroke-width: 1.5;" width="140" x="326" y="216.5"/><text fill="#000000" font-family="sans-serif" font-size="12" lengthAdjust="spacingAndGlyphs" textLength="83" x="354.5" y="229.6387">: Architecture</text><line style="stroke: #383838; stroke-width: 1.5;" x1="327" x2="465" y1="234.4688" y2="234.4688"/><text fill="#000000" font-family="sans-serif" font-size="10" lengthAdjust="spacingAndGlyphs" textLength="128" x="332" y="247.751">artifactTypes[] = ["arch"]</text><rect fill="#F8F8F8" height="60.8906" style="stroke: #383838; stroke-width: 1.5;" width="195" x="549.5" y="352"/><text fill="#000000" font-family="sans-serif" font-size="12" lengthAdjust="spacingAndGlyphs" textLength="181" x="556.5" y="365.1387">Client Design: Detailed Design</text><line style="stroke: #383838; stroke-width: 1.5;" x1="550.5" x2="743.5" y1="369.9688" y2="369.9688"/><text fill="#000000" font-family="sans-serif" font-size="10" lengthAdjust="spacingAndGlyphs" textLength="123" x="555.5" y="383.251">artifactTypes[] = ["dsn"]</text><text fill="#000000" font-family="sans-serif" font-size="10" lengthAdjust="spacingAndGlyphs" textLength="175" x="555.5" y="394.8916">coveredTags[] = ["HwAbstraction",</text><text fill="#000000" font-family="sans-serif" font-size="10" lengthAdjust="spacingAndGlyphs" textLength="161" x="555.5" y="406.5322">"HttpClient", "LocalStorage", ...]</text><rect fill="#F8F8F8" height="60.8906" style="stroke: #383838; stroke-width: 1.5;" width="236" x="278" y="352"/><text fill="#000000" font-family="sans-serif" font-size="12" lengthAdjust="spacingAndGlyphs" textLength="222" x="285" y="365.1387">Web Service Design: Detailed Design</text><line style="stroke: #383838; stroke-width: 1.5;" x1="279" x2="513" y1="369.9688" y2="369.9688"/><text fill="#000000" font-family="sans-serif" font-size="10" lengthAdjust="spacingAndGlyphs" textLength="123" x="284" y="383.251">artifactTypes[] = ["dsn"]</text><text fill="#000000" font-family="sans-serif" font-size="10" lengthAdjust="spacingAndGlyphs" textLength="216" x="284" y="394.8916">coveredTags[] = ["AuthenticationProvider",</text><text fill="#000000" font-family="sans-serif" font-size="10" lengthAdjust="spacingAndGlyphs" textLength="194" x="284" y="406.5322">"ServiceDiscovery", "MapProvider", ...]</text><rect fill="#F8F8F8" height="60.8906" style="stroke: #383838; stroke-width: 1.5;" width="205" x="37.5" y="352"/><text fill="#000000" font-family="sans-serif" font-size="12" lengthAdjust="spacingAndGlyphs" textLength="191" x="44.5" y="365.1387">Web UI Design: Detailed Design</text><line style="stroke: #383838; stroke-width: 1.5;" x1="38.5" x2="241.5" y1="369.9688" y2="369.9688"/><text fill="#000000" font-family="sans-serif" font-size="10" lengthAdjust="spacingAndGlyphs" textLength="123" x="43.5" y="383.251">artifactTypes[] = ["dsn"]</text><text fill="#000000" font-family="sans-serif" font-size="10" lengthAdjust="spacingAndGlyphs" textLength="153" x="43.5" y="394.8916">coveredTags[] = ["WebPortal",</text><text fill="#000000" font-family="sans-serif" font-size="10" lengthAdjust="spacingAndGlyphs" textLength="106" x="43.5" y="406.5322">"QrCodeScanner", ...]</text><!--entity andrea--><ellipse cx="223" cy="206" fill="#F8F8F8" rx="8" ry="8" style="stroke: #383838; stroke-width: 2.0;"/><path d="M223,214 L223,241 M210,222 L236,222 M223,241 L210,256 M223,241 L236,256 " fill="#F8F8F8" style="stroke: #383838; stroke-width: 2.0;"/><text fill="#000000" font-family="sans-serif" font-size="14" lengthAdjust="spacingAndGlyphs" textLength="52" x="197" y="271.9951">Andrea</text><!--entity curt--><ellipse cx="592" cy="500" fill="#F8F8F8" rx="8" ry="8" style="stroke: #383838; stroke-width: 2.0;"/><path d="M592,508 L592,535 M579,516 L605,516 M592,535 L579,550 M592,535 L605,550 " fill="#F8F8F8" style="stroke: #383838; stroke-width: 2.0;"/><text fill="#000000" font-family="sans-serif" font-size="14" lengthAdjust="spacingAndGlyphs" textLength="30" x="577" y="565.9951">Curt</text><!--entity cloe--><ellipse cx="674" cy="500" fill="#F8F8F8" rx="8" ry="8" style="stroke: #383838; stroke-width: 2.0;"/><path d="M674,508 L674,535 M661,516 L687,516 M674,535 L661,550 M674,535 L687,550 " fill="#F8F8F8" style="stroke: #383838; stroke-width: 2.0;"/><text fill="#000000" font-family="sans-serif" font-size="14" lengthAdjust="spacingAndGlyphs" textLength="32" x="658" y="565.9951">Cloe</text><!--entity wan--><ellipse cx="355" cy="500" fill="#F8F8F8" rx="8" ry="8" style="stroke: #383838; stroke-width: 2.0;"/><path d="M355,508 L355,535 M342,516 L368,516 M355,535 L342,550 M355,535 L368,550 " fill="#F8F8F8" style="stroke: #383838; stroke-width: 2.0;"/><text fill="#000000" font-family="sans-serif" font-size="14" lengthAdjust="spacingAndGlyphs" textLength="32" x="339" y="565.9951">Wan</text><!--entity walter--><ellipse cx="437" cy="500" fill="#F8F8F8" rx="8" ry="8" style="stroke: #383838; stroke-width: 2.0;"/><path d="M437,508 L437,535 M424,516 L450,516 M437,535 L424,550 M437,535 L450,550 " fill="#F8F8F8" style="stroke: #383838; stroke-width: 2.0;"/><text fill="#000000" font-family="sans-serif" font-size="14" lengthAdjust="spacingAndGlyphs" textLength="47" x="413.5" y="565.9951">Walter</text><!--entity soeren--><ellipse cx="209" cy="50" fill="#F8F8F8" rx="8" ry="8" style="stroke: #383838; stroke-width: 2.0;"/><path d="M209,58 L209,85 M196,66 L222,66 M209,85 L196,100 M209,85 L222,100 " fill="#F8F8F8" style="stroke: #383838; stroke-width: 2.0;"/><text fill="#000000" font-family="sans-serif" font-size="14" lengthAdjust="spacingAndGlyphs" textLength="51" x="183.5" y="115.9951">Soeren</text><!--entity uma--><ellipse cx="140" cy="500" fill="#F8F8F8" rx="8" ry="8" style="stroke: #383838; stroke-width: 2.0;"/><path d="M140,508 L140,535 M127,516 L153,516 M140,535 L127,550 M140,535 L153,550 " fill="#F8F8F8" style="stroke: #383838; stroke-width: 2.0;"/><text fill="#000000" font-family="sans-serif" font-size="14" lengthAdjust="spacingAndGlyphs" textLength="33" x="123.5" y="565.9951">Uma</text><path d="M396,103.88 C396,134.692 396,188.25 396,216.253 " fill="none" style="stroke: #383838; stroke-width: 1.0;"/><polygon fill="#383838" points="396,98.771,392,107.771,396,103.771,400,107.771,396,98.771" style="stroke: #383838; stroke-width: 1.0;"/><text fill="#000000" font-family="sans-serif" font-size="13" lengthAdjust="spacingAndGlyphs" textLength="43" x="397" y="162.0669">covers</text><path d="M431.853,257.212 C474.755,281.996 546.898,323.672 595.694,351.861 " fill="none" style="stroke: #383838; stroke-width: 1.0;"/><polygon fill="#383838" points="427.282,254.571,433.0742,262.5366,431.6115,257.0721,437.076,255.6094,427.282,254.571" style="stroke: #383838; stroke-width: 1.0;"/><text fill="#000000" font-family="sans-serif" font-size="13" lengthAdjust="spacingAndGlyphs" textLength="80" x="544" y="318.0669">covers parts</text><path d="M396,259.672 C396,284.681 396,324.585 396,351.861 " fill="none" style="stroke: #383838; stroke-width: 1.0;"/><polygon fill="#383838" points="396,254.571,392,263.571,396,259.571,400,263.571,396,254.571" style="stroke: #383838; stroke-width: 1.0;"/><text fill="#000000" font-family="sans-serif" font-size="13" lengthAdjust="spacingAndGlyphs" textLength="80" x="397" y="318.0669">covers parts</text><path d="M359.699,257.061 C315.974,281.827 242.197,323.615 192.328,351.861 " fill="none" style="stroke: #383838; stroke-width: 1.0;"/><polygon fill="#383838" points="364.095,254.571,354.2926,255.5268,359.7446,257.0355,358.2359,262.4875,364.095,254.571" style="stroke: #383838; stroke-width: 1.0;"/><text fill="#000000" font-family="sans-serif" font-size="13" lengthAdjust="spacingAndGlyphs" textLength="80" x="269" y="318.0669">covers parts</text><path d="M234.609,79.5 C253.177,79.5 279.495,79.5 305.503,79.5 " fill="none" style="stroke: #383838; stroke-width: 1.0;"/><polygon fill="#383838" points="310.698,79.5,301.698,75.5,305.698,79.5,301.698,83.5,310.698,79.5" style="stroke: #383838; stroke-width: 1.0;"/><text fill="#000000" font-family="sans-serif" font-size="13" lengthAdjust="spacingAndGlyphs" textLength="40" x="252.75" y="72.5669">writes</text><path d="M249.275,235.5 C268.327,235.5 295.119,235.5 320.602,235.5 " fill="none" style="stroke: #383838; stroke-width: 1.0;"/><polygon fill="#383838" points="325.679,235.5,316.679,231.5,320.679,235.5,316.679,239.5,325.679,235.5" style="stroke: #383838; stroke-width: 1.0;"/><text fill="#000000" font-family="sans-serif" font-size="13" lengthAdjust="spacingAndGlyphs" textLength="40" x="267.5" y="228.5669">writes</text><path d="M621.456,417.486 C616.357,425.525 611.502,434.299 608,443 C602.08,457.71 598.325,474.737 595.954,489.705 " fill="none" style="stroke: #383838; stroke-width: 1.0;"/><polygon fill="#383838" points="624.306,413.101,616.047,418.4665,621.5808,417.2931,622.7543,422.8269,624.306,413.101" style="stroke: #383838; stroke-width: 1.0;"/><text fill="#000000" font-family="sans-serif" font-size="13" lengthAdjust="spacingAndGlyphs" textLength="40" x="609" y="456.0669">writes</text><path d="M653.471,418.249 C657.482,439.793 662.642,467.506 666.786,489.757 " fill="none" style="stroke: #383838; stroke-width: 1.0;"/><polygon fill="#383838" points="652.529,413.193,650.2448,422.7733,653.4447,418.1084,658.1095,421.3083,652.529,413.193" style="stroke: #383838; stroke-width: 1.0;"/><text fill="#000000" font-family="sans-serif" font-size="13" lengthAdjust="spacingAndGlyphs" textLength="40" x="661" y="456.0669">writes</text><path d="M365.284,417.459 C359.829,425.331 354.952,434.043 352,443 C347.118,457.812 346.746,474.857 348.005,489.811 " fill="none" style="stroke: #383838; stroke-width: 1.0;"/><polygon fill="#383838" points="368.366,413.176,359.8629,418.1456,365.4459,417.2347,366.3568,422.8177,368.366,413.176" style="stroke: #383838; stroke-width: 1.0;"/><text fill="#000000" font-family="sans-serif" font-size="13" lengthAdjust="spacingAndGlyphs" textLength="40" x="353" y="456.0669">writes</text><path d="M405.826,418.249 C411.917,439.793 419.753,467.506 426.045,489.757 " fill="none" style="stroke: #383838; stroke-width: 1.0;"/><polygon fill="#383838" points="404.396,413.193,402.9948,422.9417,405.756,418.0045,410.6932,420.7657,404.396,413.193" style="stroke: #383838; stroke-width: 1.0;"/><text fill="#000000" font-family="sans-serif" font-size="13" lengthAdjust="spacingAndGlyphs" textLength="40" x="417" y="456.0669">writes</text><path d="M140,418.249 C140,439.793 140,467.506 140,489.757 " fill="none" style="stroke: #383838; stroke-width: 1.0;"/><polygon fill="#383838" points="140,413.193,136,422.193,140,418.193,144,422.193,140,413.193" style="stroke: #383838; stroke-width: 1.0;"/><text fill="#000000" font-family="sans-serif" font-size="13" lengthAdjust="spacingAndGlyphs" textLength="40" x="141" y="456.0669">writes</text></g></svg>