<?xml version="1.0" encoding="UTF-8" standalone="no"?><svg xmlns="http://www.w3.org/2000/svg" xmlns:xlink="http://www.w3.org/1999/xlink" contentScriptType="application/ecmascript" contentStyleType="text/css" height="1868px" preserveAspectRatio="none" style="width:768px;height:1868px;" version="1.1" viewBox="0 0 768 1868" width="768px" zoomAndPan="magnify"><defs/><g><!--cluster ##2--><rect fill="#F8F8F8" height="37.6094" style="stroke: #383838; stroke-width: 1.5;" width="167" x="323.5" y="60.5"/><text fill="#000000" font-family="sans-serif" font-size="12" lengthAdjust="spacingAndGlyphs" textLength="137" x="338.5" y="73.6387">: System Specification</text><line style="stroke: #383838; stroke-width: 1.5;" x1="324.5" x2="489.5" y1="78.4688" y2="78.4688"/><text fill="#000000" font-family="sans-serif" font-size="10" lengthAdjust="spacingAndGlyphs" textLength="155" x="329.5" y="91.751">artifactTypes[] = ["feat", "req"]</text><rect fill="#F8F8F8" height="37.6094" style="stroke: #383838; stroke-width: 1.5;" width="136" x="339" y="650.5"/><text fill="#000000" font-family="sans-serif" font-size="12" lengthAdjust="spacingAndGlyphs" textLength="85" x="364.5" y="663.6387">: Architecture</text><line style="stroke: #383838; stroke-width: 1.5;" x1="340" x2="474" y1="668.4688" y2="668.4688"/><text fill="#000000" font-family="sans-serif" font-size="10" lengthAdjust="spacingAndGlyphs" textLength="124" x="345" y="681.751">artifactTypes[] = ["arch"]</text><rect fill="#F8F8F8" height="60.8906" style="stroke: #383838; stroke-width: 1.5;" width="203" x="564.5" y="1220"/><text fill="#000000" font-family="sans-serif" font-size="12" lengthAdjust="spacingAndGlyphs" textLength="189" x="571.5" y="1233.1387">Client Design: Detailed Design</text><line style="stroke: #383838; stroke-width: 1.5;" x1="565.5" x2="766.5" y1="1237.9688" y2="1237.9688"/><text fill="#000000" font-family="sans-serif" font-size="10" lengthAdjust="spacingAndGlyphs" textLength="120" x="570.5" y="1251.251">artifactTypes[] = ["dsn"]</text><text fill="#000000" font-family="sans-serif" font-size="10" lengthAdjust="spacingAndGlyphs" textLength="171" x="570.5" y="1262.8916">coveredTags[] = ["HwAbstraction",</text><text fill="#000000" font-family="sans-serif" font-size="10" lengthAdjust="spacingAndGlyphs" textLength="159" x="570.5" y="1274.5322">"HttpClient", "LocalStorage", ...]</text><rect fill="#F8F8F8" height="60.8906" style="stroke: #383838; stroke-width: 1.5;" width="244" x="285" y="1220"/><text fill="#000000" font-family="sans-serif" font-size="12" lengthAdjust="spacingAndGlyphs" textLength="230" x="292" y="1233.1387">Web Service Design: Detailed Design</text><line style="stroke: #383838; stroke-width: 1.5;" x1="286" x2="528" y1="1237.9688" y2="1237.9688"/><text fill="#000000" font-family="sans-serif" font-size="10" lengthAdjust="spacingAndGlyphs" textLength="120" x="291" y="1251.251">artifactTypes[] = ["dsn"]</text><text fill="#000000" font-family="sans-serif" font-size="10" lengthAdjust="spacingAndGlyphs" textLength="211" x="291" y="1262.8916">coveredTags[] = ["AuthenticationProvider",</text><text fill="#000000" font-family="sans-serif" font-size="10" lengthAdjust="spacingAndGlyphs" textLength="191" x="291" y="1274.5322">"ServiceDiscovery", "MapProvider", ...]</text><rect fill="#F8F8F8" height="60.8906" style="stroke: #383838; stroke-width: 1.5;" width="211" x="38.5" y="1220"/><text fill="#000000" font-family="sans-serif" font-size="12" lengthAdjust="spacingAndGlyphs" textLength="197" x="45.5" y="1233.1387">Web UI Design: Detailed Design</text><line style="stroke: #383838; stroke-width: 1.5;" x1="39.5" x2="248.5" y1="1237.9688" y2="1237.9688"/><text fill="#000000" font-family="sans-serif" font-size="10" lengthAdjust="spacingAndGlyphs" textLength="120" x="44.5" y="1251.251">artifactTypes[] = ["dsn"]</text><text fill="#000000" font-family="sans-serif" font-size="10" lengthAdjust="spacingAndGlyphs" textLength="150" x="44.5" y="1262.8916">coveredTags[] = ["WebPortal",</text><text fill="#000000" font-family="sans-serif" font-size="10" lengthAdjust="spacingAndGlyphs" textLength="107" x="44.5" y="1274.5322">"QrCodeScanner", ...]</text><!--entity andrea--><ellipse cx="241" cy="640" fill="#F8F8F8" rx="8" ry="8" style="stroke: #383838; stroke-width: 2.0;"/><path d="M241,648 L241,675 M228,656 L254,656 M241,675 L228,690 M241,675 L254,690 " fill="#F8F8F8" style="stroke: #383838; stroke-width: 2.0;"/><text fill="#000000" font-family="sans-serif" font-size="14" lengthAdjust="spacingAndGlyphs" textLength="49" x="216.5" y="705.9951">Andrea</text><!--entity curt--><ellipse cx="588" cy="1802" fill="#F8F8F8" rx="8" ry="8" style="stroke: #383838; stroke-width: 2.0;"/><path d="M588,1810 L588,1837 M575,1818 L601,1818 M588,1837 L575,1852 M588,1837 L601,1852 " fill="#F8F8F8" style="stroke: #383838; stroke-width: 2.0;"/><text fill="#000000" font-family="sans-serif" font-size="14" lengthAdjust="spacingAndGlyphs" textLength="29" x="573.5" y="1867.9951">Curt</text><!--entity cloe--><ellipse cx="697" cy="1802" fill="#F8F8F8" rx="8" ry="8" style="stroke: #383838; stroke-width: 2.0;"/><path d="M697,1810 L697,1837 M684,1818 L710,1818 M697,1837 L684,1852 M697,1837 L710,1852 " fill="#F8F8F8" style="stroke: #383838; stroke-width: 2.0;"/><text fill="#000000" font-family="sans-serif" font-size="14" lengthAdjust="spacingAndGlyphs" textLength="31" x="681.5" y="1867.9951">Cloe</text><!--entity wan--><ellipse cx="334" cy="1802" fill="#F8F8F8" rx="8" ry="8" style="stroke: #383838; stroke-width: 2.0;"/><path d="M334,1810 L334,1837 M321,1818 L347,1818 M334,1837 L321,1852 M334,1837 L347,1852 " fill="#F8F8F8" style="stroke: #383838; stroke-width: 2.0;"/><text fill="#000000" font-family="sans-serif" font-size="14" lengthAdjust="spacingAndGlyphs" textLength="30" x="319" y="1867.9951">Wan</text><!--entity walter--><ellipse cx="443" cy="1802" fill="#F8F8F8" rx="8" ry="8" style="stroke: #383838; stroke-width: 2.0;"/><path d="M443,1810 L443,1837 M430,1818 L456,1818 M443,1837 L430,1852 M443,1837 L456,1852 " fill="#F8F8F8" style="stroke: #383838; stroke-width: 2.0;"/><text fill="#000000" font-family="sans-serif" font-size="14" lengthAdjust="spacingAndGlyphs" textLength="43" x="421.5" y="1867.9951">Walter</text><!--entity soeren--><ellipse cx="225" cy="50" fill="#F8F8F8" rx="8" ry="8" style="stroke: #383838; stroke-width: 2.0;"/><path d="M225,58 L225,85 M212,66 L238,66 M225,85 L212,100 M225,85 L238,100 " fill="#F8F8F8" style="stroke: #383838; stroke-width: 2.0;"/><text fill="#000000" font-family="sans-serif" font-size="14" lengthAdjust="spacingAndGlyphs" textLength="50" x="200" y="115.9951">Soeren</text><!--entity uma--><ellipse cx="144" cy="1802" fill="#F8F8F8" rx="8" ry="8" style="stroke: #383838; stroke-width: 2.0;"/><path d="M144,1810 L144,1837 M131,1818 L157,1818 M144,1837 L131,1852 M144,1837 L157,1852 " fill="#F8F8F8" style="stroke: #383838; stroke-width: 2.0;"/><text fill="#000000" font-family="sans-serif" font-size="14" lengthAdjust="spacingAndGlyphs" textLength="31" x="128.5" y="1867.9951">Uma</text><path d="M407,104.1101 C407,124.561 407,154.424 407,180.5 C407,180.5 407,180.5 407,568.5 C407,596.9062 407,629.8065 407,650.1376 " fill="none" style="stroke: #383838; stroke-width: 1.0;"/><polygon fill="#383838" points="407,98.8624,403,107.8624,407,103.8624,411,107.8624,407,98.8624" style="stroke: #383838; stroke-width: 1.0;"/><text fill="#000000" font-family="sans-serif" font-size="13" lengthAdjust="spacingAndGlyphs" textLength="42" x="408" y="379.0669">covers</text><path d="M478.2282,690.1214 C537.4204,709.4446 612,739.8688 612,770.5 C612,770.5 612,770.5 612,1158.5 C612,1181.0948 624.264,1203.0482 637.103,1219.84 " fill="none" style="stroke: #383838; stroke-width: 1.0;"/><polygon fill="#383838" points="473.2745,688.5183,480.6056,695.0952,478.0316,690.0579,483.0689,687.4838,473.2745,688.5183" style="stroke: #383838; stroke-width: 1.0;"/><text fill="#000000" font-family="sans-serif" font-size="13" lengthAdjust="spacingAndGlyphs" textLength="79" x="613" y="969.0669">covers parts</text><path d="M407,694.1101 C407,714.561 407,744.424 407,770.5 C407,770.5 407,770.5 407,1158.5 C407,1178.9444 407,1201.9444 407,1219.8333 " fill="none" style="stroke: #383838; stroke-width: 1.0;"/><polygon fill="#383838" points="407,688.8624,403,697.8624,407,693.8624,411,697.8624,407,688.8624" style="stroke: #383838; stroke-width: 1.0;"/><text fill="#000000" font-family="sans-serif" font-size="13" lengthAdjust="spacingAndGlyphs" textLength="79" x="408" y="969.0669">covers parts</text><path d="M352.1603,690.4621 C290.8343,714.7344 200,753.5473 200,770.5 C200,770.5 200,770.5 200,1158.5 C200,1181.1252 187.4894,1202.9156 174.2946,1219.6059 " fill="none" style="stroke: #383838; stroke-width: 1.0;"/><polygon fill="#383838" points="356.8911,688.5953,347.0511,688.1783,352.2402,690.4307,349.9877,695.6198,356.8911,688.5953" style="stroke: #383838; stroke-width: 1.0;"/><text fill="#000000" font-family="sans-serif" font-size="13" lengthAdjust="spacingAndGlyphs" textLength="79" x="201" y="969.0669">covers parts</text><path d="M250.3063,79.5 C268.179,79.5 293.2908,79.5 318.1846,79.5 " fill="none" style="stroke: #383838; stroke-width: 1.0;"/><polygon fill="#383838" points="323.4906,79.5,314.4906,75.5,318.4906,79.5,314.4906,83.5,323.4906,79.5" style="stroke: #383838; stroke-width: 1.0;"/><text fill="#000000" font-family="sans-serif" font-size="13" lengthAdjust="spacingAndGlyphs" textLength="37" x="268.25" y="72.5669">writes</text><path d="M265.8519,669.5 C283.922,669.5 309.3819,669.5 333.7128,669.5 " fill="none" style="stroke: #383838; stroke-width: 1.0;"/><polygon fill="#383838" points="338.8845,669.5,329.8845,665.5,333.8845,669.5,329.8845,673.5,338.8845,669.5" style="stroke: #383838; stroke-width: 1.0;"/><text fill="#000000" font-family="sans-serif" font-size="13" lengthAdjust="spacingAndGlyphs" textLength="37" x="283.75" y="662.5669">writes</text><path d="M617.8641,1284.5846 C601.8422,1300.0346 588,1319.9174 588,1342.5 C588,1342.5 588,1342.5 588,1730.5 C588,1750.6649 588,1773.0945 588,1791.6848 " fill="none" style="stroke: #383838; stroke-width: 1.0;"/><polygon fill="#383838" points="621.5317,1281.1559,612.2255,1284.38,617.8792,1284.5704,617.6888,1290.2241,621.5317,1281.1559" style="stroke: #383838; stroke-width: 1.0;"/><text fill="#000000" font-family="sans-serif" font-size="13" lengthAdjust="spacingAndGlyphs" textLength="37" x="589" y="1541.0669">writes</text><path d="M683.8223,1285.7688 C690.7256,1302.5219 697,1323.0883 697,1342.5 C697,1342.5 697,1342.5 697,1730.5 C697,1750.6649 697,1773.0945 697,1791.6848 " fill="none" style="stroke: #383838; stroke-width: 1.0;"/><polygon fill="#383838" points="681.8633,1281.1488,681.6943,1290.9962,683.8153,1285.752,689.0595,1287.873,681.8633,1281.1488" style="stroke: #383838; stroke-width: 1.0;"/><text fill="#000000" font-family="sans-serif" font-size="13" lengthAdjust="spacingAndGlyphs" textLength="37" x="698" y="1541.0669">writes</text><path d="M361.9563,1285.1745 C346.9586,1300.7162 334,1320.508 334,1342.5 C334,1342.5 334,1342.5 334,1730.5 C334,1750.6649 334,1773.0945 334,1791.6848 " fill="none" style="stroke: #383838; stroke-width: 1.0;"/><polygon fill="#383838" points="365.8065,1281.316,356.6178,1284.8612,362.2747,1284.8552,362.2806,1290.5121,365.8065,1281.316" style="stroke: #383838; stroke-width: 1.0;"/><text fill="#000000" font-family="sans-serif" font-size="13" lengthAdjust="spacingAndGlyphs" textLength="37" x="335" y="1541.0669">writes</text><path d="M427.8876,1285.8564 C435.8288,1302.4726 443,1322.9031 443,1342.5 C443,1342.5 443,1342.5 443,1730.5 C443,1750.6649 443,1773.0945 443,1791.6848 " fill="none" style="stroke: #383838; stroke-width: 1.0;"/><polygon fill="#383838" points="425.6327,1281.2748,426.0182,1291.1161,427.8407,1285.7609,433.1959,1287.5834,425.6327,1281.2748" style="stroke: #383838; stroke-width: 1.0;"/><text fill="#000000" font-family="sans-serif" font-size="13" lengthAdjust="spacingAndGlyphs" textLength="37" x="444" y="1541.0669">writes</text><path d="M144,1286.3264 C144,1303.3456 144,1323.9722 144,1342.5 C144,1342.5 144,1342.5 144,1730.5 C144,1750.6649 144,1773.0945 144,1791.6848 " fill="none" style="stroke: #383838; stroke-width: 1.0;"/><polygon fill="#383838" points="144,1281.1667,140,1290.1667,144,1286.1667,148,1290.1667,144,1281.1667" style="stroke: #383838; stroke-width: 1.0;"/><text fill="#000000" font-family="sans-serif" font-size="13" lengthAdjust="spacingAndGlyphs" textLength="37" x="145" y="1541.0669">writes</text></g></svg>