<?xml version="1.0" encoding="UTF-8" standalone="no"?>
<!--
  #%L
  OpenFastTrace
  %%
  Copyright (C) 2016 - 2017 itsallcode.org
  %%
  This program is free software: you can redistribute it and/or modify
  it under the terms of the GNU General Public License as
  published by the Free Software Foundation, either version 3 of the
  License, or (at your option) any later version.
  
  This program is distributed in the hope that it will be useful,
  but WITHOUT ANY WARRANTY; without even the implied warranty of
  MERCHANTABILITY or FITNESS FOR A PARTICULAR PURPOSE.  See the
  GNU General Public License for more details.
  
  You should have received a copy of the GNU General Public
  License along with this program.  If not, see
  <http://www.gnu.org/licenses/gpl-3.0.html>.
  #L%
  -->

<!-- Creator: fig2dev Version 3.2 Patchlevel 5e -->

<!-- CreationDate: Sun Apr 10 12:45:01 2016 -->

<!-- Magnification: 1.050 -->

<svg
   xmlns:dc="http://purl.org/dc/elements/1.1/"
   xmlns:cc="http://creativecommons.org/ns#"
   xmlns:rdf="http://www.w3.org/1999/02/22-rdf-syntax-ns#"
   xmlns:svg="http://www.w3.org/2000/svg"
   xmlns="http://www.w3.org/2000/svg"
   xmlns:sodipodi="http://sodipodi.sourceforge.net/DTD/sodipodi-0.dtd"
   xmlns:inkscape="http://www.inkscape.org/namespaces/inkscape"
   width="9.4in"
   height="3.3in"
   viewBox="2744 2980 11282 3960"
   version="1.1"
   id="svg20"
   sodipodi:docname="openfasttrace_logo.svg"
   inkscape:version="0.92.3 (2405546, 2018-03-11)"
   inkscape:export-filename="/home/sebastian/git/openfasttrace/src/main/resources/openfasttrace_logo.png"
   inkscape:export-xdpi="96"
   inkscape:export-ydpi="96">
  <metadata
     id="metadata26">
    <rdf:RDF>
      <cc:Work
         rdf:about="">
        <dc:format>image/svg+xml</dc:format>
        <dc:type
           rdf:resource="http://purl.org/dc/dcmitype/StillImage" />
      </cc:Work>
    </rdf:RDF>
  </metadata>
  <defs
     id="defs24" />
  <sodipodi:namedview
     pagecolor="#ffffff"
     bordercolor="#666666"
     borderopacity="1"
     objecttolerance="10"
     gridtolerance="10"
     guidetolerance="10"
     inkscape:pageopacity="0"
     inkscape:pageshadow="2"
     inkscape:window-width="2493"
     inkscape:window-height="1545"
     id="namedview22"
     showgrid="false"
     inkscape:zoom="0.42331562"
     inkscape:cx="-316.54868"
     inkscape:cy="158.4"
     inkscape:window-x="67"
     inkscape:window-y="27"
     inkscape:window-maximized="1"
     inkscape:current-layer="svg20" />
  <polygon
     id="polygon4"
     style="fill:#58c8fd;fill-opacity:1;stroke:#0a5ddd;stroke-width:111;stroke-linecap:butt;stroke-linejoin:miter;stroke-opacity:1"
     points="4015,6377 3307,5433 4251,3543 6141,3543 6614,4488 5669,6377 "
     transform="matrix(1.090922,0,0,1.2645031,-737.28966,-1311.9354)" />
  <polygon
     id="polygon6"
     style="fill:#ffffff;stroke:#0a5ddd;stroke-width:111;stroke-linecap:butt;stroke-linejoin:miter;stroke-opacity:1"
     points="11811,3543 10866,3543 11574,4960 10866,6377 11811,6377 12519,4960 "
     transform="matrix(1.090922,0,0,1.2645031,-737.28966,-1311.9354)" />
  <polygon
     id="polygon8"
     style="fill:#58c8fd;fill-opacity:1;stroke:#0a5ddd;stroke-width:111;stroke-linecap:butt;stroke-linejoin:miter;stroke-opacity:1"
     points="8503,4488 9448,4488 8976,3543 7086,3543 5669,6377 6614,6377 7086,5433 8031,5433 "
     transform="matrix(1.090922,0,0,1.2645031,-737.28966,-1311.9354)" />
  <polyline
     id="polyline10"
     style="fill:none;stroke:#0a5ddd;stroke-width:111;stroke-linecap:butt;stroke-linejoin:miter;stroke-opacity:1"
     points="7559,4488 8503,4488 "
     transform="matrix(1.090922,0,0,1.2645031,-737.28966,-1311.9354)" />
  <polygon
     id="polygon12"
     style="fill:#ffffff;fill-opacity:1;stroke:#0a5ddd;stroke-width:111;stroke-linecap:butt;stroke-linejoin:miter;stroke-opacity:1"
     points="4251,5433 5196,5433 5669,4488 4724,4488 "
     transform="matrix(1.090922,0,0,1.2645031,-737.28966,-1311.9354)" />
  <polygon
     id="polygon14"
     style="fill:#58c8fd;fill-opacity:1;stroke:#0a5ddd;stroke-width:111;stroke-linecap:butt;stroke-linejoin:miter;stroke-opacity:1"
     points="9448,6377 8503,6377 9448,4488 8976,3543 10866,3543 11338,4488 10393,4488 "
     transform="matrix(1.090922,0,0,1.2645031,-737.28966,-1311.9354)" />
  <polygon
     id="polygon16"
     style="fill:#ffffff;stroke:#0a5ddd;stroke-width:111;stroke-linecap:butt;stroke-linejoin:miter;stroke-opacity:1"
     points="12755,3543 11811,3543 12519,4960 11811,6377 12755,6377 13464,4960 "
     transform="matrix(1.090922,0,0,1.2645031,-737.28966,-1311.9354)" />
</svg>
