<?plantuml 1.2026.2?><svg xmlns="http://www.w3.org/2000/svg" xmlns:xlink="http://www.w3.org/1999/xlink" contentStyleType="text/css" data-diagram-type="CLASS" height="1318px" preserveAspectRatio="none" style="width:1292px;height:1318px;background:#FFFFFF;" version="1.1" viewBox="0 0 1292 1318" width="1292px" zoomAndPan="magnify"><defs/><g><!--cluster java--><g class="cluster" data-qualified-name="java" data-source-line="4" id="ent0004"><polygon fill="none" points="1097,6.602,1131.1819,6.602,1138.1819,31.6699,1275,31.6699,1275,159.672,1097,159.672,1097,6.602" style="stroke:#000000;stroke-width:1.5;"/><line style="stroke:#000000;stroke-width:1.5;" x1="1097" x2="1138.1819" y1="31.6699" y2="31.6699"/><text fill="#000000" font-family="sans-serif" font-size="14" font-weight="bold" lengthAdjust="spacing" textLength="28.1819" x="1101" y="23.5679">java</text></g><!--cluster util--><g class="cluster" data-qualified-name="java.util" data-source-line="3" id="ent0002"><polygon fill="none" points="1121,52.602,1149.6799,52.602,1156.6799,77.6699,1251,77.6699,1251,135.672,1121,135.672,1121,52.602" style="stroke:#000000;stroke-width:1.5;"/><line style="stroke:#000000;stroke-width:1.5;" x1="1121" x2="1156.6799" y1="77.6699" y2="77.6699"/><text fill="#000000" font-family="sans-serif" font-size="14" font-weight="bold" lengthAdjust="spacing" textLength="22.6799" x="1125" y="69.5679">util</text></g><!--cluster org--><g class="cluster" data-qualified-name="org" data-source-line="12" id="ent0008"><polygon fill="none" points="16,210.672,46.1744,210.672,53.1744,235.7399,1248,235.7399,1248,1311.452,16,1311.452,16,210.672" style="stroke:#000000;stroke-width:1.5;"/><line style="stroke:#000000;stroke-width:1.5;" x1="16" x2="53.1744" y1="235.7399" y2="235.7399"/><text fill="#000000" font-family="sans-serif" font-size="14" font-weight="bold" lengthAdjust="spacing" textLength="24.1744" x="20" y="227.6379">org</text></g><!--cluster itsallcode--><g class="cluster" data-qualified-name="org.itsallcode" data-source-line="12" id="ent0009"><polygon fill="none" points="40,256.672,112.5208,256.672,119.5208,281.7399,1224,281.7399,1224,1287.452,40,1287.452,40,256.672" style="stroke:#000000;stroke-width:1.5;"/><line style="stroke:#000000;stroke-width:1.5;" x1="40" x2="119.5208" y1="281.7399" y2="281.7399"/><text fill="#000000" font-family="sans-serif" font-size="14" font-weight="bold" lengthAdjust="spacing" textLength="66.5208" x="44" y="273.6379">itsallcode</text></g><!--cluster openfasttrace--><g class="cluster" data-qualified-name="org.itsallcode.openfasttrace" data-source-line="8" id="ent0005"><polygon fill="none" points="64,302.672,167.0512,302.672,174.0512,327.7399,1200,327.7399,1200,1263.452,64,1263.452,64,302.672" style="stroke:#000000;stroke-width:1.5;"/><line style="stroke:#000000;stroke-width:1.5;" x1="64" x2="174.0512" y1="327.7399" y2="327.7399"/><text fill="#000000" font-family="sans-serif" font-size="14" font-weight="bold" lengthAdjust="spacing" textLength="97.0512" x="68" y="319.6379">openfasttrace</text></g><!--cluster importer--><g class="cluster" data-qualified-name="org.itsallcode.openfasttrace.importer" data-source-line="10" id="ent0006"><polygon fill="none" points="88,632.152,155.7958,632.152,162.7958,657.2199,1176,657.2199,1176,1239.452,88,1239.452,88,632.152" style="stroke:#000000;stroke-width:1.5;"/><line style="stroke:#000000;stroke-width:1.5;" x1="88" x2="162.7958" y1="657.2199" y2="657.2199"/><text fill="#000000" font-family="sans-serif" font-size="14" font-weight="bold" lengthAdjust="spacing" textLength="61.7958" x="92" y="649.1179">importer</text></g><!--cluster zip--><g class="cluster" data-qualified-name="org.itsallcode.openfasttrace.importer.zip" data-source-line="44" id="ent0017"><polygon fill="none" points="720,1132.382,746.1144,1132.382,753.1144,1157.4499,1104,1157.4499,1104,1215.452,720,1215.452,720,1132.382" style="stroke:#000000;stroke-width:1.5;"/><line style="stroke:#000000;stroke-width:1.5;" x1="720" x2="753.1144" y1="1157.4499" y2="1157.4499"/><text fill="#000000" font-family="sans-serif" font-size="14" font-weight="bold" lengthAdjust="spacing" textLength="20.1144" x="724" y="1149.3479">zip</text></g><!--cluster core--><g class="cluster" data-qualified-name="org.itsallcode.openfasttrace.core" data-source-line="66" id="ent0038"><polygon fill="none" points="568,348.672,604.6179,348.672,611.6179,373.7399,1176,373.7399,1176,545.152,568,545.152,568,348.672" style="stroke:#000000;stroke-width:1.5;"/><line style="stroke:#000000;stroke-width:1.5;" x1="568" x2="611.6179" y1="373.7399" y2="373.7399"/><text fill="#000000" font-family="sans-serif" font-size="14" font-weight="bold" lengthAdjust="spacing" textLength="30.6179" x="572" y="365.6379">core</text></g><!--cluster serviceloader--><g class="cluster" data-qualified-name="org.itsallcode.openfasttrace.core.serviceloader" data-source-line="65" id="ent0036"><polygon fill="none" points="592,394.672,691.6352,394.672,698.6352,419.7399,1152,419.7399,1152,521.152,592,521.152,592,394.672" style="stroke:#000000;stroke-width:1.5;"/><line style="stroke:#000000;stroke-width:1.5;" x1="592" x2="698.6352" y1="419.7399" y2="419.7399"/><text fill="#000000" font-family="sans-serif" font-size="14" font-weight="bold" lengthAdjust="spacing" textLength="93.6352" x="596" y="411.6379">serviceloader</text></g><!--class ServiceLoader--><g class="entity" data-qualified-name="java.util.ServiceLoader" data-source-line="4" id="ent0003"><rect fill="#F1F1F1" height="29.0679" rx="2.5" ry="2.5" style="stroke:#181818;stroke-width:0.5;" width="98.6516" x="1136.67" y="90.602"/><text fill="#000000" font-family="sans-serif" font-size="14" lengthAdjust="spacing" textLength="92.6516" x="1139.67" y="110.5679">ServiceLoader</text></g><!--class ImporterFactoryLoader--><g class="entity" data-qualified-name="org.itsallcode.openfasttrace.importer.ImporterFactoryLoader" data-source-line="12" id="ent0007"><rect fill="#F1F1F1" height="29.0679" rx="2.5" ry="2.5" style="stroke:#181818;stroke-width:0.5;" width="159.6635" x="987.17" y="701.392"/><text fill="#000000" font-family="sans-serif" font-size="14" lengthAdjust="spacing" textLength="153.6635" x="990.17" y="721.3579">ImporterFactoryLoader</text></g><!--class MultiFileImporter--><g class="entity" data-qualified-name="org.itsallcode.openfasttrace.importer.MultiFileImporter" data-source-line="15" id="ent0010"><rect fill="#F1F1F1" height="29.0679" rx="2.5" ry="2.5" style="stroke:#181818;stroke-width:0.5;" width="121.4436" x="556.28" y="1015.252"/><text fill="#000000" font-family="sans-serif" font-size="14" lengthAdjust="spacing" textLength="115.4436" x="559.28" y="1035.2179">MultiFileImporter</text></g><!--class Importer--><g class="entity" data-qualified-name="org.itsallcode.openfasttrace.importer.Importer" data-source-line="18" id="ent0011"><rect fill="#F1F1F1" height="72.4799" rx="2.5" ry="2.5" style="stroke:#181818;stroke-width:0.5;" width="142.0736" x="712.96" y="993.542"/><text fill="#000000" font-family="sans-serif" font-size="12" font-style="italic" lengthAdjust="spacing" textLength="58.2964" x="754.8486" y="1011.3701">&#171;interface&#187;</text><text fill="#000000" font-family="sans-serif" font-size="14" font-style="italic" lengthAdjust="spacing" textLength="55.5518" x="756.2209" y="1029.852">Importer</text><line style="stroke:#181818;stroke-width:0.5;" x1="713.96" x2="854.0336" y1="1038.954" y2="1038.954"/><g data-visibility-modifier="PUBLIC_METHOD"><ellipse cx="723.96" cy="1053.988" fill="#A6A6A6" rx="3" ry="3" style="stroke:#545454;stroke-width:1;"/></g><text fill="#000000" font-family="sans-serif" font-size="14" lengthAdjust="spacing" textLength="116.0736" x="732.96" y="1057.9199">runImport() : void</text></g><!--class ImporterFactory--><g class="entity" data-qualified-name="org.itsallcode.openfasttrace.importer.ImporterFactory" data-source-line="22" id="ent0012"><rect fill="#F1F1F1" height="91.5479" rx="2.5" ry="2.5" style="stroke:#181818;stroke-width:0.5;" width="527.1282" x="279.44" y="670.152"/><text fill="#000000" font-family="sans-serif" font-size="12" font-style="italic" lengthAdjust="spacing" textLength="58.2964" x="513.8559" y="687.9801">&#171;interface&#187;</text><text fill="#000000" font-family="sans-serif" font-size="14" font-style="italic" lengthAdjust="spacing" textLength="101.1636" x="492.4223" y="706.462">ImporterFactory</text><line style="stroke:#181818;stroke-width:0.5;" x1="280.44" x2="805.5682" y1="715.564" y2="715.564"/><g data-visibility-modifier="PUBLIC_METHOD"><ellipse cx="290.44" cy="730.598" fill="#A6A6A6" rx="3" ry="3" style="stroke:#545454;stroke-width:1;"/></g><text fill="#000000" font-family="sans-serif" font-size="14" lengthAdjust="spacing" textLength="276.429" x="299.44" y="734.5299">supportsFile(inputFile: InputFile) : boolean</text><g data-visibility-modifier="PUBLIC_METHOD"><ellipse cx="290.44" cy="749.6659" fill="#A6A6A6" rx="3" ry="3" style="stroke:#545454;stroke-width:1;"/></g><text fill="#000000" font-family="sans-serif" font-size="14" lengthAdjust="spacing" textLength="501.1282" x="299.44" y="753.5979">createImporter(inputFile: InputFile, listener: ImportEventListener) : Importer</text></g><!--class AbstractImporterFactory--><g class="entity" data-qualified-name="org.itsallcode.openfasttrace.importer.AbstractImporterFactory" data-source-line="27" id="ent0013"><rect fill="#F1F1F1" height="72.4799" rx="2.5" ry="2.5" style="stroke:#181818;stroke-width:0.5;" width="229.1812" x="428.41" y="840.702"/><text fill="#000000" font-family="sans-serif" font-size="12" font-style="italic" lengthAdjust="spacing" textLength="55.3924" x="515.3044" y="858.5301">&#171;abstract&#187;</text><text fill="#000000" font-family="sans-serif" font-size="14" lengthAdjust="spacing" textLength="162.4414" x="461.7799" y="877.012">AbstractImporterFactory</text><line style="stroke:#181818;stroke-width:0.5;" x1="429.41" x2="656.5912" y1="886.114" y2="886.114"/><g data-visibility-modifier="IE_MANDATORY"><ellipse cx="439.41" cy="901.148" fill="#000000" rx="3" ry="3" style="stroke:#000000;stroke-width:1;"/></g><text fill="#000000" font-family="sans-serif" font-size="14" lengthAdjust="spacing" textLength="203.1812" x="448.41" y="905.0799">getContext() : ImporterContext</text></g><!--class ImporterService--><g class="entity" data-qualified-name="org.itsallcode.openfasttrace.importer.ImporterService" data-source-line="31" id="ent0014"><rect fill="#F1F1F1" height="75.2038" rx="2.5" ry="2.5" style="stroke:#181818;stroke-width:0.5;" width="425.1526" x="187.42" y="1147.312"/><text fill="#000000" font-family="sans-serif" font-size="14" lengthAdjust="spacing" textLength="106.1336" x="346.9295" y="1167.2779">ImporterService</text><line style="stroke:#181818;stroke-width:0.5;" x1="188.42" x2="611.5726" y1="1176.3799" y2="1176.3799"/><g data-visibility-modifier="PUBLIC_METHOD"><ellipse cx="198.42" cy="1191.4139" fill="#A6A6A6" rx="3" ry="3" style="stroke:#545454;stroke-width:1;"/></g><text fill="#000000" font-family="sans-serif" font-size="14" lengthAdjust="spacing" textLength="399.1526" x="207.42" y="1195.3458">ImporterService(context: ImporterContext) : ImporterService</text><g data-visibility-modifier="PUBLIC_METHOD"><ellipse cx="198.42" cy="1210.4818" fill="#A6A6A6" rx="3" ry="3" style="stroke:#545454;stroke-width:1;"/></g><text fill="#000000" font-family="sans-serif" font-size="14" lengthAdjust="spacing" textLength="235.5071" x="207.42" y="1214.4138">createImporter() : MultiFileImporter</text></g><!--class AbstractRegexMatchingImporterFactory--><g class="entity" data-qualified-name="org.itsallcode.openfasttrace.importer.AbstractRegexMatchingImporterFactory" data-source-line="36" id="ent0015"><rect fill="#F1F1F1" height="45.412" rx="2.5" ry="2.5" style="stroke:#181818;stroke-width:0.5;" width="270.809" x="889.6" y="1007.072"/><text fill="#000000" font-family="sans-serif" font-size="12" font-style="italic" lengthAdjust="spacing" textLength="55.3924" x="997.3083" y="1024.9001">&#171;abstract&#187;</text><text fill="#000000" font-family="sans-serif" font-size="14" lengthAdjust="spacing" textLength="264.809" x="892.6" y="1043.382">AbstractRegexMatchingImporterFactory</text></g><!--class ImporterContext--><g class="entity" data-qualified-name="org.itsallcode.openfasttrace.importer.ImporterContext" data-source-line="39" id="ent0016"><rect fill="#F1F1F1" height="75.2038" rx="2.5" ry="2.5" style="stroke:#181818;stroke-width:0.5;" width="417.5506" x="104.22" y="992.182"/><text fill="#000000" font-family="sans-serif" font-size="14" lengthAdjust="spacing" textLength="110.8096" x="257.5905" y="1012.1479">ImporterContext</text><line style="stroke:#181818;stroke-width:0.5;" x1="105.22" x2="520.7706" y1="1021.2499" y2="1021.2499"/><g data-visibility-modifier="PUBLIC_METHOD"><ellipse cx="115.22" cy="1036.2839" fill="#A6A6A6" rx="3" ry="3" style="stroke:#545454;stroke-width:1;"/></g><text fill="#000000" font-family="sans-serif" font-size="14" lengthAdjust="spacing" textLength="253.259" x="124.22" y="1040.2158">getImporterService() : ImporterService</text><g data-visibility-modifier="PUBLIC_METHOD"><ellipse cx="115.22" cy="1055.3518" fill="#A6A6A6" rx="3" ry="3" style="stroke:#545454;stroke-width:1;"/></g><text fill="#000000" font-family="sans-serif" font-size="14" lengthAdjust="spacing" textLength="391.5506" x="124.22" y="1059.2838">setImporterService(importerService: ImporterService) : void</text></g><!--class ZipFileImporter--><g class="entity" data-qualified-name="org.itsallcode.openfasttrace.importer.zip.ZipFileImporter" data-source-line="45" id="ent0018"><rect fill="#F1F1F1" height="29.0679" rx="2.5" ry="2.5" style="stroke:#181818;stroke-width:0.5;" width="108.0456" x="735.98" y="1170.382"/><text fill="#000000" font-family="sans-serif" font-size="14" lengthAdjust="spacing" textLength="102.0456" x="738.98" y="1190.3479">ZipFileImporter</text></g><!--class ZipFileImporterFactory--><g class="entity" data-qualified-name="org.itsallcode.openfasttrace.importer.zip.ZipFileImporterFactory" data-source-line="48" id="ent0019"><rect fill="#F1F1F1" height="29.0679" rx="2.5" ry="2.5" style="stroke:#181818;stroke-width:0.5;" width="156.3315" x="931.83" y="1170.382"/><text fill="#000000" font-family="sans-serif" font-size="14" lengthAdjust="spacing" textLength="150.3315" x="934.83" y="1190.3479">ZipFileImporterFactory</text></g><!--class InitializingServiceLoader--><g class="entity" data-qualified-name="org.itsallcode.openfasttrace.core.serviceloader.InitializingServiceLoader" data-source-line="66" id="ent0037"><rect fill="#F1F1F1" height="29.0679" rx="2.5" ry="2.5" style="stroke:#181818;stroke-width:0.5;" width="166.8594" x="969.57" y="454.382"/><text fill="#000000" font-family="sans-serif" font-size="14" lengthAdjust="spacing" textLength="160.8594" x="972.57" y="474.3479">InitializingServiceLoader</text></g><!--class Initializable--><g class="entity" data-qualified-name="org.itsallcode.openfasttrace.core.serviceloader.Initializable" data-source-line="69" id="ent0039"><rect fill="#F1F1F1" height="72.4799" rx="2.5" ry="2.5" style="stroke:#181818;stroke-width:0.5;" width="261.6191" x="608.19" y="432.672"/><text fill="#000000" font-family="sans-serif" font-size="12" font-style="italic" lengthAdjust="spacing" textLength="58.2964" x="709.8514" y="450.5001">&#171;interface&#187;</text><text fill="#000000" font-family="sans-serif" font-size="14" font-style="italic" lengthAdjust="spacing" textLength="72.5757" x="702.7117" y="468.982">Initializable</text><line style="stroke:#181818;stroke-width:0.5;" x1="609.19" x2="868.8091" y1="478.084" y2="478.084"/><g data-visibility-modifier="PUBLIC_METHOD"><ellipse cx="619.19" cy="493.118" fill="#A6A6A6" rx="3" ry="3" style="stroke:#545454;stroke-width:1;"/></g><text fill="#000000" font-family="sans-serif" font-size="14" lengthAdjust="spacing" textLength="235.6191" x="628.19" y="497.0499">init(context: ImporterContext) : void</text></g><!--reverse link ZipFileImporter to ZipFileImporterFactory--><g class="link" data-entity-1="ent0018" data-entity-2="ent0019" data-link-type="dependency" data-source-line="51" id="lnk21"><path codeLine="51" d="M850.38,1184.922 C876.72,1184.922 902.83,1184.922 931.75,1184.922" fill="none" id="ZipFileImporter-backto-ZipFileImporterFactory" style="stroke:#181818;stroke-width:1;"/><polygon fill="#181818" points="844.38,1184.922,853.38,1188.922,849.38,1184.922,853.38,1180.922,844.38,1184.922" style="stroke:#181818;stroke-width:1;"/><text fill="#000000" font-family="sans-serif" font-size="13" lengthAdjust="spacing" textLength="51.493" x="862.43" y="1177.819">&#171;create&#187;</text></g><!--reverse link ImporterFactory to AbstractImporterFactory--><g class="link" data-entity-1="ent0012" data-entity-2="ent0013" data-link-type="extension" data-source-line="54" id="lnk23"><path codeLine="54" d="M543,780.072 C543,804.862 543,817.172 543,840.282" fill="none" id="ImporterFactory-backto-AbstractImporterFactory" style="stroke:#181818;stroke-width:1;stroke-dasharray:7,7;"/><polygon fill="none" points="543,762.072,537,780.072,549,780.072,543,762.072" style="stroke:#181818;stroke-width:1;"/></g><!--reverse link AbstractImporterFactory to AbstractRegexMatchingImporterFactory--><g class="link" data-entity-1="ent0013" data-entity-2="ent0015" data-link-type="extension" data-source-line="55" id="lnk25"><path codeLine="55" d="M674.0987,918.9671 C766.2387,947.7971 875.9,982.122 954.07,1006.582" fill="none" id="AbstractImporterFactory-backto-AbstractRegexMatchingImporterFactory" style="stroke:#181818;stroke-width:1;"/><polygon fill="none" points="656.92,913.592,672.307,924.6933,675.8904,913.2409,656.92,913.592" style="stroke:#181818;stroke-width:1;"/></g><!--reverse link AbstractRegexMatchingImporterFactory to ZipFileImporterFactory--><g class="link" data-entity-1="ent0015" data-entity-2="ent0019" data-link-type="extension" data-source-line="56" id="lnk27"><path codeLine="56" d="M1021.0971,1070.6364 C1017.9571,1102.7264 1013.95,1143.612 1011.34,1170.202" fill="none" id="AbstractRegexMatchingImporterFactory-backto-ZipFileImporterFactory" style="stroke:#181818;stroke-width:1;"/><polygon fill="none" points="1022.85,1052.722,1015.1256,1070.0521,1027.0686,1071.2207,1022.85,1052.722" style="stroke:#181818;stroke-width:1;"/></g><!--link ImporterContext to ImporterService--><g class="link" data-entity-1="ent0016" data-entity-2="ent0014" data-link-type="dependency" data-source-line="57" id="lnk28"><path codeLine="57" d="M334.06,1067.852 C347.69,1091.842 362.3958,1117.7353 376.0158,1141.7053" fill="none" id="ImporterContext-to-ImporterService" style="stroke:#181818;stroke-width:1;"/><polygon fill="#181818" points="378.98,1146.922,378.0115,1137.1209,376.5099,1142.5748,371.056,1141.0731,378.98,1146.922" style="stroke:#181818;stroke-width:1;"/><text fill="#000000" font-family="sans-serif" font-size="13" lengthAdjust="spacing" textLength="51.7401" x="360.11" y="1112.279">contains</text></g><!--reverse link MultiFileImporter to ImporterService--><g class="link" data-entity-1="ent0010" data-entity-2="ent0014" data-link-type="dependency" data-source-line="58" id="lnk30"><path codeLine="58" d="M592.4578,1048.1015 C560.0078,1071.0015 499.07,1114.012 452.37,1146.962" fill="none" id="MultiFileImporter-backto-ImporterService" style="stroke:#181818;stroke-width:1;"/><polygon fill="#181818" points="597.36,1044.642,587.7003,1046.5631,593.2748,1047.5249,592.313,1053.0994,597.36,1044.642" style="stroke:#181818;stroke-width:1;"/><text fill="#000000" font-family="sans-serif" font-size="13" lengthAdjust="spacing" textLength="51.493" x="522.49" y="1112.279">&#171;create&#187;</text></g><!--reverse link MultiFileImporter to ZipFileImporter--><g class="link" data-entity-1="ent0010" data-entity-2="ent0018" data-link-type="dependency" data-source-line="59" id="lnk32"><path codeLine="59" d="M636.092,1048.8398 C655.152,1066.5798 685.43,1093.572 718,1116.382 C723.87,1120.492 726.33,1120.002 732,1124.382 C749.8,1138.162 767.44,1157.262 778.51,1170.072" fill="none" id="MultiFileImporter-backto-ZipFileImporter" style="stroke:#181818;stroke-width:1;"/><polygon fill="#181818" points="631.7,1044.752,635.5628,1053.8117,635.36,1048.1585,641.0132,1047.9557,631.7,1044.752" style="stroke:#181818;stroke-width:1;"/><text fill="#000000" font-family="sans-serif" font-size="13" lengthAdjust="spacing" textLength="59.553" x="719" y="1112.279">delegates</text></g><!--reverse link Importer to ZipFileImporter--><g class="link" data-entity-1="ent0011" data-entity-2="ent0018" data-link-type="extension" data-source-line="60" id="lnk34"><path codeLine="60" d="M786.0977,1084.2881 C787.3977,1117.3281 788.55,1146.872 789.46,1170.092" fill="none" id="Importer-backto-ZipFileImporter" style="stroke:#181818;stroke-width:1;stroke-dasharray:7,7;"/><polygon fill="none" points="785.39,1066.302,780.1023,1084.524,792.093,1084.0522,785.39,1066.302" style="stroke:#181818;stroke-width:1;"/></g><!--link AbstractImporterFactory to ImporterContext--><g class="link" data-entity-1="ent0013" data-entity-2="ent0016" data-link-type="dependency" data-source-line="61" id="lnk35"><path codeLine="61" d="M488.78,913.492 C452.79,937.102 410.6772,964.7214 374.2672,988.6014" fill="none" id="AbstractImporterFactory-to-ImporterContext" style="stroke:#181818;stroke-width:1;"/><polygon fill="#181818" points="369.25,991.892,378.9695,990.3009,373.431,989.1498,374.582,983.6113,369.25,991.892" style="stroke:#181818;stroke-width:1;"/><text fill="#000000" font-family="sans-serif" font-size="13" lengthAdjust="spacing" textLength="41.301" x="442.77" y="958.079">passes</text></g><!--reverse link Initializable to InitializingServiceLoader--><g class="link" data-entity-1="ent0039" data-entity-2="ent0037" data-link-type="dependency" data-source-line="72" id="lnk41"><path codeLine="72" d="M875.89,468.912 C909.55,468.912 938.85,468.912 969.38,468.912" fill="none" id="Initializable-backto-InitializingServiceLoader" style="stroke:#181818;stroke-width:1;"/><polygon fill="#181818" points="869.89,468.912,878.89,472.912,874.89,468.912,878.89,464.912,869.89,468.912" style="stroke:#181818;stroke-width:1;"/><text fill="#000000" font-family="sans-serif" font-size="13" lengthAdjust="spacing" textLength="63.466" x="888.19" y="461.809">&#171;initialize&#187;</text></g><!--link ImporterFactory to Initializable--><g class="link" data-entity-1="ent0012" data-entity-2="ent0039" data-link-type="extension" data-source-line="75" id="lnk42"><path codeLine="75" d="M579.2,669.672 C617.09,622.312 664.5355,562.9976 699.2555,519.5976" fill="none" id="ImporterFactory-to-Initializable" style="stroke:#181818;stroke-width:1;stroke-dasharray:7,7;"/><polygon fill="none" points="710.5,505.542,694.5703,515.8495,703.9407,523.3458,710.5,505.542" style="stroke:#181818;stroke-width:1;"/></g><!--reverse link InitializingServiceLoader to ImporterFactoryLoader--><g class="link" data-entity-1="ent0037" data-entity-2="ent0007" data-link-type="dependency" data-source-line="76" id="lnk44"><path codeLine="76" d="M1054.1325,489.7822 C1056.5925,532.8022 1063.73,657.672 1066.2,700.902" fill="none" id="InitializingServiceLoader-backto-ImporterFactoryLoader" style="stroke:#181818;stroke-width:1;"/><polygon fill="#181818" points="1053.79,483.792,1050.3103,493.0057,1054.0754,488.7838,1058.2973,492.5489,1053.79,483.792" style="stroke:#181818;stroke-width:1;"/><text fill="#000000" font-family="sans-serif" font-size="13" lengthAdjust="spacing" textLength="20.02" x="1079.176" y="576.049">get</text><text fill="#000000" font-family="sans-serif" font-size="13" lengthAdjust="spacing" textLength="53.872" x="1062.25" y="593.755">available</text><text fill="#000000" font-family="sans-serif" font-size="13" lengthAdjust="spacing" textLength="52.845" x="1062.7635" y="611.461">factories</text></g><!--reverse link ImporterFactory to ImporterFactoryLoader--><g class="link" data-entity-1="ent0012" data-entity-2="ent0007" data-link-type="dependency" data-source-line="77" id="lnk46"><path codeLine="77" d="M812.92,715.922 C878.48,715.922 937.88,715.922 986.7,715.922" fill="none" id="ImporterFactory-backto-ImporterFactoryLoader" style="stroke:#181818;stroke-width:1;"/><polygon fill="#181818" points="806.92,715.922,815.92,719.922,811.92,715.922,815.92,711.922,806.92,715.922" style="stroke:#181818;stroke-width:1;"/><text fill="#000000" font-family="sans-serif" font-size="13" lengthAdjust="spacing" textLength="144.2611" x="824.87" y="690.819">find factory responsible</text><text fill="#000000" font-family="sans-serif" font-size="13" lengthAdjust="spacing" textLength="98.4231" x="847.789" y="708.525">for input format</text></g><!--link ServiceLoader to ZipFileImporterFactory--><g class="link" data-entity-1="ent0003" data-entity-2="ent0019" data-link-type="dependency" data-source-line="80" id="lnk47"><path codeLine="80" d="M1187.77,119.912 C1193.78,167.852 1213,331.872 1213,467.912 C1213,467.912 1213,467.912 1213,1030.782 C1213,1072.232 1205.62,1087.392 1176,1116.382 C1148.54,1143.262 1114.6889,1158.2045 1081.0489,1168.2545" fill="none" id="ServiceLoader-to-ZipFileImporterFactory" style="stroke:#181818;stroke-width:1;"/><polygon fill="#181818" points="1075.3,1169.972,1085.0684,1171.2283,1080.0908,1168.5407,1082.7784,1163.5631,1075.3,1169.972" style="stroke:#181818;stroke-width:1;"/><text fill="#000000" font-family="sans-serif" font-size="13" lengthAdjust="spacing" textLength="51.493" x="1214" y="806.599">&#171;create&#187;</text></g><!--reverse link ServiceLoader to InitializingServiceLoader--><g class="link" data-entity-1="ent0003" data-entity-2="ent0037" data-link-type="dependency" data-source-line="81" id="lnk49"><path codeLine="81" d="M1175.4254,125.254 C1167.9054,139.094 1159.27,155.842 1151,175.672 C1107.45,280.142 1068.97,411.462 1056.91,453.962" fill="none" id="ServiceLoader-backto-InitializingServiceLoader" style="stroke:#181818;stroke-width:1;"/><polygon fill="#181818" points="1178.29,119.982,1170.4785,125.9803,1175.9029,124.3753,1177.5078,129.7997,1178.29,119.982" style="stroke:#181818;stroke-width:1;"/><text fill="#000000" font-family="sans-serif" font-size="13" lengthAdjust="spacing" textLength="34.827" x="1152" y="190.569">&#171;use&#187;</text></g><?plantuml-src bLPDZziW4BtdLz1R-c7tRaMMgbLNYhHxQM_LNWYUUAVBWWKutMwx_xrWGnA3SLAVC9xtPjvyWD-XOBnlW9JbPyQ1Yb8_eLYjEigUQ0la9ptGiZV8oPyLiG_ZL6lo7TG16Tn9se3oNzvMRoUOL6s9HbFEcMoWb1s8FTN6ACh0sW-0O8lFdLHcu1dsJsws_iijPKQgtnDteyi8SDzpWxV8ONlYF1c7rN61mfhiNKX7-ytck5dNPsZtV2Ig5wFb-Zsfo45Yyt_qNiW5BxhldBbsGjOekjwuLKMsOUcSxwHqvOgWJ04rH_Mpu4-4epOWG5K-hgy74ERERphkWCyd-ijEkrgQL1ZrNn9T7qWBvaPQtIzZ-WBMx-MT1KFVTKc-ekzhDX8c7iwT1gxb_3b4qbDB9Pzcvnkqy79F3Nj4qLwPgYnf92R9Wirkd8WPmN6hfI2SlYSCrtH-6ErNxA8uHoq_iCjCwPHmGfg5XunUpPB15npsfgYJw2fRgx4nwdf9TMueohuh_zRn8P305hkbwBl2ScHSh2ufcwANF1sfuduh6lbB57KoGHLnyqPHw0GQJ9pxUkPmdaridFqyk04EhGNhB3RA_CLAnHg3zifsjDRUaJsV9lSNamfAFKhbyHNbPrUWGShnrUPxxkwCZhspYoC0wOx3XMi3hUtYsPUPsdnmOI2cKLH377udLCv7dxI-mlRH33KuvvYp3Jw7SkTZgjn1zo3iRmboH_LWVomS7drrCgn1IHHVHVOe6hBthmfq9uN6aLSgCboWnAwUgN7_Dr5-VBjafcxItWjP7XJ7AZURNZlSFm00?></g></svg>