<?plantuml 1.2026.2?><svg xmlns="http://www.w3.org/2000/svg" xmlns:xlink="http://www.w3.org/1999/xlink" contentStyleType="text/css" data-diagram-type="CLASS" height="1322px" preserveAspectRatio="none" style="width:1221px;height:1322px;background:#FFFFFF;" version="1.1" viewBox="0 0 1221 1322" width="1221px" zoomAndPan="magnify"><defs/><g><!--cluster java--><g class="cluster" data-qualified-name="java" data-source-line="4" id="ent0004"><polygon fill="none" points="1026,6.602,1060.1819,6.602,1067.1819,31.6699,1204,31.6699,1204,159.672,1026,159.672,1026,6.602" style="stroke:#000000;stroke-width:1.5;"/><line style="stroke:#000000;stroke-width:1.5;" x1="1026" x2="1067.1819" y1="31.6699" y2="31.6699"/><text fill="#000000" font-family="sans-serif" font-size="14" font-weight="bold" lengthAdjust="spacing" textLength="28.1819" x="1030" y="23.5679">java</text></g><!--cluster util--><g class="cluster" data-qualified-name="java.util" data-source-line="3" id="ent0002"><polygon fill="none" points="1050,52.602,1078.6799,52.602,1085.6799,77.6699,1180,77.6699,1180,135.672,1050,135.672,1050,52.602" style="stroke:#000000;stroke-width:1.5;"/><line style="stroke:#000000;stroke-width:1.5;" x1="1050" x2="1085.6799" y1="77.6699" y2="77.6699"/><text fill="#000000" font-family="sans-serif" font-size="14" font-weight="bold" lengthAdjust="spacing" textLength="22.6799" x="1054" y="69.5679">util</text></g><!--cluster org--><g class="cluster" data-qualified-name="org" data-source-line="12" id="ent0008"><polygon fill="none" points="16,210.672,46.1744,210.672,53.1744,235.7399,1177,235.7399,1177,1315.242,16,1315.242,16,210.672" style="stroke:#000000;stroke-width:1.5;"/><line style="stroke:#000000;stroke-width:1.5;" x1="16" x2="53.1744" y1="235.7399" y2="235.7399"/><text fill="#000000" font-family="sans-serif" font-size="14" font-weight="bold" lengthAdjust="spacing" textLength="24.1744" x="20" y="227.6379">org</text></g><!--cluster itsallcode--><g class="cluster" data-qualified-name="org.itsallcode" data-source-line="12" id="ent0009"><polygon fill="none" points="40,256.672,112.5208,256.672,119.5208,281.7399,1153,281.7399,1153,1291.242,40,1291.242,40,256.672" style="stroke:#000000;stroke-width:1.5;"/><line style="stroke:#000000;stroke-width:1.5;" x1="40" x2="119.5208" y1="281.7399" y2="281.7399"/><text fill="#000000" font-family="sans-serif" font-size="14" font-weight="bold" lengthAdjust="spacing" textLength="66.5208" x="44" y="273.6379">itsallcode</text></g><!--cluster openfasttrace--><g class="cluster" data-qualified-name="org.itsallcode.openfasttrace" data-source-line="8" id="ent0005"><polygon fill="none" points="64,302.672,167.0512,302.672,174.0512,327.7399,1129,327.7399,1129,1267.242,64,1267.242,64,302.672" style="stroke:#000000;stroke-width:1.5;"/><line style="stroke:#000000;stroke-width:1.5;" x1="64" x2="174.0512" y1="327.7399" y2="327.7399"/><text fill="#000000" font-family="sans-serif" font-size="14" font-weight="bold" lengthAdjust="spacing" textLength="97.0512" x="68" y="319.6379">openfasttrace</text></g><!--cluster importer--><g class="cluster" data-qualified-name="org.itsallcode.openfasttrace.importer" data-source-line="10" id="ent0006"><polygon fill="none" points="88,632.152,155.7958,632.152,162.7958,657.2199,1105,657.2199,1105,1243.242,88,1243.242,88,632.152" style="stroke:#000000;stroke-width:1.5;"/><line style="stroke:#000000;stroke-width:1.5;" x1="88" x2="162.7958" y1="657.2199" y2="657.2199"/><text fill="#000000" font-family="sans-serif" font-size="14" font-weight="bold" lengthAdjust="spacing" textLength="61.7958" x="92" y="649.1179">importer</text></g><!--cluster zip--><g class="cluster" data-qualified-name="org.itsallcode.openfasttrace.importer.zip" data-source-line="45" id="ent0017"><polygon fill="none" points="697,1136.172,723.1144,1136.172,730.1144,1161.2399,1081,1161.2399,1081,1219.242,697,1219.242,697,1136.172" style="stroke:#000000;stroke-width:1.5;"/><line style="stroke:#000000;stroke-width:1.5;" x1="697" x2="730.1144" y1="1161.2399" y2="1161.2399"/><text fill="#000000" font-family="sans-serif" font-size="14" font-weight="bold" lengthAdjust="spacing" textLength="20.1144" x="701" y="1153.1379">zip</text></g><!--cluster core--><g class="cluster" data-qualified-name="org.itsallcode.openfasttrace.core" data-source-line="67" id="ent0038"><polygon fill="none" points="497,348.672,533.6179,348.672,540.6179,373.7399,1105,373.7399,1105,545.152,497,545.152,497,348.672" style="stroke:#000000;stroke-width:1.5;"/><line style="stroke:#000000;stroke-width:1.5;" x1="497" x2="540.6179" y1="373.7399" y2="373.7399"/><text fill="#000000" font-family="sans-serif" font-size="14" font-weight="bold" lengthAdjust="spacing" textLength="30.6179" x="501" y="365.6379">core</text></g><!--cluster serviceloader--><g class="cluster" data-qualified-name="org.itsallcode.openfasttrace.core.serviceloader" data-source-line="66" id="ent0036"><polygon fill="none" points="521,394.672,620.6352,394.672,627.6352,419.7399,1081,419.7399,1081,521.152,521,521.152,521,394.672" style="stroke:#000000;stroke-width:1.5;"/><line style="stroke:#000000;stroke-width:1.5;" x1="521" x2="627.6352" y1="419.7399" y2="419.7399"/><text fill="#000000" font-family="sans-serif" font-size="14" font-weight="bold" lengthAdjust="spacing" textLength="93.6352" x="525" y="411.6379">serviceloader</text></g><!--class ServiceLoader--><g class="entity" data-qualified-name="java.util.ServiceLoader" data-source-line="4" id="ent0003"><rect fill="#F1F1F1" height="29.0679" rx="2.5" ry="2.5" style="stroke:#181818;stroke-width:0.5;" width="98.6516" x="1065.67" y="90.602"/><text fill="#000000" font-family="sans-serif" font-size="14" lengthAdjust="spacing" textLength="92.6516" x="1068.67" y="110.5679">ServiceLoader</text></g><!--class ImporterFactoryLoader--><g class="entity" data-qualified-name="org.itsallcode.openfasttrace.importer.ImporterFactoryLoader" data-source-line="12" id="ent0007"><rect fill="#F1F1F1" height="29.0679" rx="2.5" ry="2.5" style="stroke:#181818;stroke-width:0.5;" width="159.6635" x="916.17" y="710.922"/><text fill="#000000" font-family="sans-serif" font-size="14" lengthAdjust="spacing" textLength="153.6635" x="919.17" y="730.8879">ImporterFactoryLoader</text></g><!--class MultiFileImporter--><g class="entity" data-qualified-name="org.itsallcode.openfasttrace.importer.MultiFileImporter" data-source-line="15" id="ent0010"><rect fill="#F1F1F1" height="29.0679" rx="2.5" ry="2.5" style="stroke:#181818;stroke-width:0.5;" width="121.4436" x="820.28" y="882.832"/><text fill="#000000" font-family="sans-serif" font-size="14" lengthAdjust="spacing" textLength="115.4436" x="823.28" y="902.7979">MultiFileImporter</text></g><!--class Importer--><g class="entity" data-qualified-name="org.itsallcode.openfasttrace.importer.Importer" data-source-line="18" id="ent0011"><rect fill="#F1F1F1" height="72.4799" rx="2.5" ry="2.5" style="stroke:#181818;stroke-width:0.5;" width="142.0736" x="946.96" y="1015.332"/><text fill="#000000" font-family="sans-serif" font-size="12" font-style="italic" lengthAdjust="spacing" textLength="58.2964" x="988.8486" y="1033.1601">&#171;interface&#187;</text><text fill="#000000" font-family="sans-serif" font-size="14" font-style="italic" lengthAdjust="spacing" textLength="55.5518" x="990.2209" y="1051.642">Importer</text><line style="stroke:#181818;stroke-width:0.5;" x1="947.96" x2="1088.0336" y1="1060.744" y2="1060.744"/><g data-visibility-modifier="PUBLIC_METHOD"><ellipse cx="957.96" cy="1075.778" fill="#A6A6A6" rx="3" ry="3" style="stroke:#545454;stroke-width:1;"/></g><text fill="#000000" font-family="sans-serif" font-size="14" lengthAdjust="spacing" textLength="116.0736" x="966.96" y="1079.7099">runImport() : void</text></g><!--class ImporterFactory--><g class="entity" data-qualified-name="org.itsallcode.openfasttrace.importer.ImporterFactory" data-source-line="22" id="ent0012"><rect fill="#F1F1F1" height="110.6158" rx="2.5" ry="2.5" style="stroke:#181818;stroke-width:0.5;" width="527.1282" x="208.44" y="670.152"/><text fill="#000000" font-family="sans-serif" font-size="12" font-style="italic" lengthAdjust="spacing" textLength="58.2964" x="442.8559" y="687.9801">&#171;interface&#187;</text><text fill="#000000" font-family="sans-serif" font-size="14" font-style="italic" lengthAdjust="spacing" textLength="101.1636" x="421.4223" y="706.462">ImporterFactory</text><line style="stroke:#181818;stroke-width:0.5;" x1="209.44" x2="734.5682" y1="715.564" y2="715.564"/><g data-visibility-modifier="PUBLIC_METHOD"><ellipse cx="219.44" cy="730.598" fill="#A6A6A6" rx="3" ry="3" style="stroke:#545454;stroke-width:1;"/></g><text fill="#000000" font-family="sans-serif" font-size="14" lengthAdjust="spacing" textLength="276.429" x="228.44" y="734.5299">supportsFile(inputFile: InputFile) : boolean</text><g data-visibility-modifier="PUBLIC_METHOD"><ellipse cx="219.44" cy="749.6659" fill="#A6A6A6" rx="3" ry="3" style="stroke:#545454;stroke-width:1;"/></g><text fill="#000000" font-family="sans-serif" font-size="14" lengthAdjust="spacing" textLength="501.1282" x="228.44" y="753.5979">createImporter(inputFile: InputFile, listener: ImportEventListener) : Importer</text><g data-visibility-modifier="PUBLIC_METHOD"><ellipse cx="219.44" cy="768.7338" fill="#A6A6A6" rx="3" ry="3" style="stroke:#545454;stroke-width:1;"/></g><text fill="#000000" font-family="sans-serif" font-size="14" lengthAdjust="spacing" textLength="203.1812" x="228.44" y="772.6658">getContext() : ImporterContext</text></g><!--class AbstractImporterFactory--><g class="entity" data-qualified-name="org.itsallcode.openfasttrace.importer.AbstractImporterFactory" data-source-line="28" id="ent0013"><rect fill="#F1F1F1" height="72.4799" rx="2.5" ry="2.5" style="stroke:#181818;stroke-width:0.5;" width="229.1812" x="104.41" y="861.132"/><text fill="#000000" font-family="sans-serif" font-size="12" font-style="italic" lengthAdjust="spacing" textLength="55.3924" x="191.3044" y="878.9601">&#171;abstract&#187;</text><text fill="#000000" font-family="sans-serif" font-size="14" lengthAdjust="spacing" textLength="162.4414" x="137.7799" y="897.442">AbstractImporterFactory</text><line style="stroke:#181818;stroke-width:0.5;" x1="105.41" x2="332.5912" y1="906.544" y2="906.544"/><g data-visibility-modifier="IE_MANDATORY"><ellipse cx="115.41" cy="921.578" fill="#000000" rx="3" ry="3" style="stroke:#000000;stroke-width:1;"/></g><text fill="#000000" font-family="sans-serif" font-size="14" lengthAdjust="spacing" textLength="203.1812" x="124.41" y="925.5099">getContext() : ImporterContext</text></g><!--class ImporterService--><g class="entity" data-qualified-name="org.itsallcode.openfasttrace.importer.ImporterService" data-source-line="32" id="ent0014"><rect fill="#F1F1F1" height="75.2038" rx="2.5" ry="2.5" style="stroke:#181818;stroke-width:0.5;" width="425.1526" x="355.42" y="1013.972"/><text fill="#000000" font-family="sans-serif" font-size="14" lengthAdjust="spacing" textLength="106.1336" x="514.9295" y="1033.9379">ImporterService</text><line style="stroke:#181818;stroke-width:0.5;" x1="356.42" x2="779.5726" y1="1043.0399" y2="1043.0399"/><g data-visibility-modifier="PUBLIC_METHOD"><ellipse cx="366.42" cy="1058.0739" fill="#A6A6A6" rx="3" ry="3" style="stroke:#545454;stroke-width:1;"/></g><text fill="#000000" font-family="sans-serif" font-size="14" lengthAdjust="spacing" textLength="399.1526" x="375.42" y="1062.0058">ImporterService(context: ImporterContext) : ImporterService</text><g data-visibility-modifier="PUBLIC_METHOD"><ellipse cx="366.42" cy="1077.1418" fill="#A6A6A6" rx="3" ry="3" style="stroke:#545454;stroke-width:1;"/></g><text fill="#000000" font-family="sans-serif" font-size="14" lengthAdjust="spacing" textLength="235.5071" x="375.42" y="1081.0738">createImporter() : MultiFileImporter</text></g><!--class RegExMatchingImporterFactory--><g class="entity" data-qualified-name="org.itsallcode.openfasttrace.importer.RegExMatchingImporterFactory" data-source-line="37" id="ent0015"><rect fill="#F1F1F1" height="45.412" rx="2.5" ry="2.5" style="stroke:#181818;stroke-width:0.5;" width="215.9712" x="104.01" y="1028.862"/><text fill="#000000" font-family="sans-serif" font-size="12" font-style="italic" lengthAdjust="spacing" textLength="55.3924" x="184.2994" y="1046.6901">&#171;abstract&#187;</text><text fill="#000000" font-family="sans-serif" font-size="14" lengthAdjust="spacing" textLength="209.9712" x="107.01" y="1065.172">RegExMatchingImporterFactory</text></g><!--class ImporterContext--><g class="entity" data-qualified-name="org.itsallcode.openfasttrace.importer.ImporterContext" data-source-line="40" id="ent0016"><rect fill="#F1F1F1" height="75.2038" rx="2.5" ry="2.5" style="stroke:#181818;stroke-width:0.5;" width="417.5506" x="368.22" y="859.762"/><text fill="#000000" font-family="sans-serif" font-size="14" lengthAdjust="spacing" textLength="110.8096" x="521.5905" y="879.7279">ImporterContext</text><line style="stroke:#181818;stroke-width:0.5;" x1="369.22" x2="784.7706" y1="888.8299" y2="888.8299"/><g data-visibility-modifier="PUBLIC_METHOD"><ellipse cx="379.22" cy="903.8639" fill="#A6A6A6" rx="3" ry="3" style="stroke:#545454;stroke-width:1;"/></g><text fill="#000000" font-family="sans-serif" font-size="14" lengthAdjust="spacing" textLength="253.259" x="388.22" y="907.7958">getImporterService() : ImporterService</text><g data-visibility-modifier="PUBLIC_METHOD"><ellipse cx="379.22" cy="922.9318" fill="#A6A6A6" rx="3" ry="3" style="stroke:#545454;stroke-width:1;"/></g><text fill="#000000" font-family="sans-serif" font-size="14" lengthAdjust="spacing" textLength="391.5506" x="388.22" y="926.8638">setImporterService(importerService: ImporterService) : void</text></g><!--class ZipFileImporter--><g class="entity" data-qualified-name="org.itsallcode.openfasttrace.importer.zip.ZipFileImporter" data-source-line="46" id="ent0018"><rect fill="#F1F1F1" height="29.0679" rx="2.5" ry="2.5" style="stroke:#181818;stroke-width:0.5;" width="108.0456" x="712.98" y="1174.172"/><text fill="#000000" font-family="sans-serif" font-size="14" lengthAdjust="spacing" textLength="102.0456" x="715.98" y="1194.1379">ZipFileImporter</text></g><!--class ZipFileImporterFactory--><g class="entity" data-qualified-name="org.itsallcode.openfasttrace.importer.zip.ZipFileImporterFactory" data-source-line="49" id="ent0019"><rect fill="#F1F1F1" height="29.0679" rx="2.5" ry="2.5" style="stroke:#181818;stroke-width:0.5;" width="156.3315" x="908.83" y="1174.172"/><text fill="#000000" font-family="sans-serif" font-size="14" lengthAdjust="spacing" textLength="150.3315" x="911.83" y="1194.1379">ZipFileImporterFactory</text></g><!--class InitializingServiceLoader--><g class="entity" data-qualified-name="org.itsallcode.openfasttrace.core.serviceloader.InitializingServiceLoader" data-source-line="67" id="ent0037"><rect fill="#F1F1F1" height="29.0679" rx="2.5" ry="2.5" style="stroke:#181818;stroke-width:0.5;" width="166.8594" x="898.57" y="454.372"/><text fill="#000000" font-family="sans-serif" font-size="14" lengthAdjust="spacing" textLength="160.8594" x="901.57" y="474.3379">InitializingServiceLoader</text></g><!--class Initializable--><g class="entity" data-qualified-name="org.itsallcode.openfasttrace.core.serviceloader.Initializable" data-source-line="70" id="ent0039"><rect fill="#F1F1F1" height="72.4799" rx="2.5" ry="2.5" style="stroke:#181818;stroke-width:0.5;" width="261.6191" x="537.19" y="432.672"/><text fill="#000000" font-family="sans-serif" font-size="12" font-style="italic" lengthAdjust="spacing" textLength="58.2964" x="638.8514" y="450.5001">&#171;interface&#187;</text><text fill="#000000" font-family="sans-serif" font-size="14" font-style="italic" lengthAdjust="spacing" textLength="72.5757" x="631.7117" y="468.982">Initializable</text><line style="stroke:#181818;stroke-width:0.5;" x1="538.19" x2="797.8091" y1="478.084" y2="478.084"/><g data-visibility-modifier="PUBLIC_METHOD"><ellipse cx="548.19" cy="493.118" fill="#A6A6A6" rx="3" ry="3" style="stroke:#545454;stroke-width:1;"/></g><text fill="#000000" font-family="sans-serif" font-size="14" lengthAdjust="spacing" textLength="235.6191" x="557.19" y="497.0499">init(context: ImporterContext) : void</text></g><!--reverse link ZipFileImporter to ZipFileImporterFactory--><g class="link" data-entity-1="ent0018" data-entity-2="ent0019" data-link-type="dependency" data-source-line="52" id="lnk21"><path codeLine="52" d="M827.38,1188.712 C853.72,1188.712 879.83,1188.712 908.75,1188.712" fill="none" id="ZipFileImporter-backto-ZipFileImporterFactory" style="stroke:#181818;stroke-width:1;"/><polygon fill="#181818" points="821.38,1188.712,830.38,1192.712,826.38,1188.712,830.38,1184.712,821.38,1188.712" style="stroke:#181818;stroke-width:1;"/><text fill="#000000" font-family="sans-serif" font-size="13" lengthAdjust="spacing" textLength="51.493" x="839.43" y="1181.609">&#171;create&#187;</text></g><!--reverse link ImporterFactory to AbstractImporterFactory--><g class="link" data-entity-1="ent0012" data-entity-2="ent0013" data-link-type="extension" data-source-line="55" id="lnk23"><path codeLine="55" d="M375.6175,791.188 C336.7575,817.288 306.32,837.732 271.99,860.782" fill="none" id="ImporterFactory-backto-AbstractImporterFactory" style="stroke:#181818;stroke-width:1;stroke-dasharray:7,7;"/><polygon fill="none" points="390.56,781.152,372.2722,786.2072,378.9628,796.1688,390.56,781.152" style="stroke:#181818;stroke-width:1;"/></g><!--reverse link AbstractImporterFactory to RegExMatchingImporterFactory--><g class="link" data-entity-1="ent0013" data-entity-2="ent0015" data-link-type="extension" data-source-line="56" id="lnk25"><path codeLine="56" d="M216.5329,952.033 C215.1829,981.383 214.14,1004.042 213,1028.752" fill="none" id="AbstractImporterFactory-backto-RegExMatchingImporterFactory" style="stroke:#181818;stroke-width:1;"/><polygon fill="none" points="217.36,934.052,210.5393,951.7573,222.5266,952.3087,217.36,934.052" style="stroke:#181818;stroke-width:1;"/></g><!--reverse link RegExMatchingImporterFactory to ZipFileImporterFactory--><g class="link" data-entity-1="ent0015" data-entity-2="ent0019" data-link-type="extension" data-source-line="57" id="lnk27"><path codeLine="57" d="M296.0183,1079.7679 C314.9883,1085.3079 318.5,1085.622 338,1089.172 C557.72,1129.202 621.54,1077.242 839,1128.172 C882.82,1138.442 930.64,1159.662 959.73,1173.792" fill="none" id="RegExMatchingImporterFactory-backto-ZipFileImporterFactory" style="stroke:#181818;stroke-width:1;"/><polygon fill="none" points="278.74,1074.722,294.3363,1085.5273,297.7002,1074.0085,278.74,1074.722" style="stroke:#181818;stroke-width:1;"/></g><!--link ImporterContext to ImporterService--><g class="link" data-entity-1="ent0016" data-entity-2="ent0014" data-link-type="dependency" data-source-line="58" id="lnk28"><path codeLine="58" d="M574.82,935.212 C573.42,958.962 571.955,983.7625 570.545,1007.5525" fill="none" id="ImporterContext-to-ImporterService" style="stroke:#181818;stroke-width:1;"/><polygon fill="#181818" points="570.19,1013.542,574.7155,1004.7944,570.4858,1008.5507,566.7295,1004.3211,570.19,1013.542" style="stroke:#181818;stroke-width:1;"/><text fill="#000000" font-family="sans-serif" font-size="13" lengthAdjust="spacing" textLength="51.7401" x="574.04" y="979.869">contains</text></g><!--reverse link MultiFileImporter to ImporterService--><g class="link" data-entity-1="ent0010" data-entity-2="ent0014" data-link-type="dependency" data-source-line="59" id="lnk30"><path codeLine="59" d="M846.9942,914.906 C800.2142,937.656 711.22,980.922 644.03,1013.602" fill="none" id="MultiFileImporter-backto-ImporterService" style="stroke:#181818;stroke-width:1;"/><polygon fill="#181818" points="852.39,912.282,842.547,912.6209,847.8935,914.4687,846.0457,919.8153,852.39,912.282" style="stroke:#181818;stroke-width:1;"/><text fill="#000000" font-family="sans-serif" font-size="13" lengthAdjust="spacing" textLength="51.493" x="744.24" y="979.869">&#171;create&#187;</text></g><!--reverse link MultiFileImporter to ZipFileImporter--><g class="link" data-entity-1="ent0010" data-entity-2="ent0018" data-link-type="dependency" data-source-line="60" id="lnk32"><path codeLine="60" d="M873.3008,917.9044 C854.0008,966.8944 791.66,1125.122 772.44,1173.892" fill="none" id="MultiFileImporter-backto-ZipFileImporter" style="stroke:#181818;stroke-width:1;"/><polygon fill="#181818" points="875.5,912.322,868.4795,919.2294,873.6673,916.974,875.9228,922.1618,875.5,912.322" style="stroke:#181818;stroke-width:1;"/><text fill="#000000" font-family="sans-serif" font-size="13" lengthAdjust="spacing" textLength="59.553" x="836.33" y="1056.969">delegates</text></g><!--reverse link Importer to ZipFileImporter--><g class="link" data-entity-1="ent0011" data-entity-2="ent0018" data-link-type="extension" data-source-line="61" id="lnk34"><path codeLine="61" d="M935.8722,1096.7871 C883.8822,1124.7871 830.13,1153.722 792.97,1173.722" fill="none" id="Importer-backto-ZipFileImporter" style="stroke:#181818;stroke-width:1;stroke-dasharray:7,7;"/><polygon fill="none" points="951.72,1088.252,933.0272,1091.5045,938.7172,1102.0696,951.72,1088.252" style="stroke:#181818;stroke-width:1;"/></g><!--link ImporterFactory to ImporterContext--><g class="link" data-entity-1="ent0012" data-entity-2="ent0016" data-link-type="dependency" data-source-line="62" id="lnk35"><path codeLine="62" d="M505.8,781.152 C521.63,806.762 536.9051,831.4984 551.0551,854.3884" fill="none" id="ImporterFactory-to-ImporterContext" style="stroke:#181818;stroke-width:1;"/><polygon fill="#181818" points="554.21,859.492,552.88,849.7333,551.5809,855.239,546.0753,853.9399,554.21,859.492" style="stroke:#181818;stroke-width:1;"/><text fill="#000000" font-family="sans-serif" font-size="13" lengthAdjust="spacing" textLength="41.301" x="534.9" y="825.659">passes</text></g><!--reverse link Initializable to InitializingServiceLoader--><g class="link" data-entity-1="ent0039" data-entity-2="ent0037" data-link-type="dependency" data-source-line="73" id="lnk41"><path codeLine="73" d="M804.89,468.912 C838.55,468.912 867.85,468.912 898.38,468.912" fill="none" id="Initializable-backto-InitializingServiceLoader" style="stroke:#181818;stroke-width:1;"/><polygon fill="#181818" points="798.89,468.912,807.89,472.912,803.89,468.912,807.89,464.912,798.89,468.912" style="stroke:#181818;stroke-width:1;"/><text fill="#000000" font-family="sans-serif" font-size="13" lengthAdjust="spacing" textLength="63.466" x="817.19" y="461.809">&#171;initialize&#187;</text></g><!--link ImporterFactory to Initializable--><g class="link" data-entity-1="ent0012" data-entity-2="ent0039" data-link-type="extension" data-source-line="76" id="lnk42"><path codeLine="76" d="M514.01,669.892 C552.27,620.202 596.6886,562.5241 629.5586,519.8341" fill="none" id="ImporterFactory-to-Initializable" style="stroke:#181818;stroke-width:1;stroke-dasharray:7,7;"/><polygon fill="none" points="640.54,505.572,624.8045,516.1736,634.3126,523.4946,640.54,505.572" style="stroke:#181818;stroke-width:1;"/></g><!--reverse link InitializingServiceLoader to ImporterFactoryLoader--><g class="link" data-entity-1="ent0037" data-entity-2="ent0007" data-link-type="dependency" data-source-line="77" id="lnk44"><path codeLine="77" d="M983.0794,489.5829 C985.5094,533.7829 992.81,666.412 995.24,710.702" fill="none" id="InitializingServiceLoader-backto-ImporterFactoryLoader" style="stroke:#181818;stroke-width:1;"/><polygon fill="#181818" points="982.75,483.592,979.2501,492.798,983.0245,488.5844,987.238,492.3588,982.75,483.592" style="stroke:#181818;stroke-width:1;"/><text fill="#000000" font-family="sans-serif" font-size="13" lengthAdjust="spacing" textLength="20.02" x="1007.766" y="576.049">get</text><text fill="#000000" font-family="sans-serif" font-size="13" lengthAdjust="spacing" textLength="53.872" x="990.84" y="593.755">available</text><text fill="#000000" font-family="sans-serif" font-size="13" lengthAdjust="spacing" textLength="52.845" x="991.3535" y="611.461">factories</text></g><!--reverse link ImporterFactory to ImporterFactoryLoader--><g class="link" data-entity-1="ent0012" data-entity-2="ent0007" data-link-type="dependency" data-source-line="78" id="lnk46"><path codeLine="78" d="M741.92,725.462 C807.48,725.462 866.88,725.462 915.7,725.462" fill="none" id="ImporterFactory-backto-ImporterFactoryLoader" style="stroke:#181818;stroke-width:1;"/><polygon fill="#181818" points="735.92,725.462,744.92,729.462,740.92,725.462,744.92,721.462,735.92,725.462" style="stroke:#181818;stroke-width:1;"/><text fill="#000000" font-family="sans-serif" font-size="13" lengthAdjust="spacing" textLength="144.2611" x="753.87" y="700.359">find factory responsible</text><text fill="#000000" font-family="sans-serif" font-size="13" lengthAdjust="spacing" textLength="98.4231" x="776.789" y="718.065">for input format</text></g><!--link ServiceLoader to ZipFileImporterFactory--><g class="link" data-entity-1="ent0003" data-entity-2="ent0019" data-link-type="dependency" data-source-line="81" id="lnk47"><path codeLine="81" d="M1116.77,119.912 C1122.78,167.842 1142,331.872 1142,467.912 C1142,467.912 1142,467.912 1142,1052.572 C1142,1114.332 1076.7345,1151.991 1030.8345,1171.441" fill="none" id="ServiceLoader-to-ZipFileImporterFactory" style="stroke:#181818;stroke-width:1;"/><polygon fill="#181818" points="1025.31,1173.782,1035.1574,1173.9535,1029.9137,1171.8312,1032.0361,1166.5875,1025.31,1173.782" style="stroke:#181818;stroke-width:1;"/><text fill="#000000" font-family="sans-serif" font-size="13" lengthAdjust="spacing" textLength="51.493" x="1143" y="825.659">&#171;create&#187;</text></g><!--reverse link ServiceLoader to InitializingServiceLoader--><g class="link" data-entity-1="ent0003" data-entity-2="ent0037" data-link-type="dependency" data-source-line="82" id="lnk49"><path codeLine="82" d="M1104.4238,125.2531 C1096.9038,139.0831 1088.27,155.832 1080,175.672 C1036.45,280.142 997.97,411.462 985.91,453.962" fill="none" id="ServiceLoader-backto-InitializingServiceLoader" style="stroke:#181818;stroke-width:1;"/><polygon fill="#181818" points="1107.29,119.982,1099.4766,125.9779,1104.9015,124.3746,1106.5049,129.7995,1107.29,119.982" style="stroke:#181818;stroke-width:1;"/><text fill="#000000" font-family="sans-serif" font-size="13" lengthAdjust="spacing" textLength="34.827" x="1081" y="190.569">&#171;use&#187;</text></g><?plantuml-src dLPDRzmW4Btlhw2txSUwTsjbgOeIQQNaqjwgN0YUTQOXO07UfcdptmisUDTWlDlwX67Ucvd73F0E1UDT3QGeFZCEL1Jw2SLgrLBsH1iWF-Y15fr1JdwlYFqOfrgJRw0EoE1MqXgKNtbRlHrXKZK56aqvPxA6GhOWzbGReoW3Qzy3WYq-jrAPdgUVFxhP-PKRoenKloRk1fSHuAxZ1c-Gm-x8UJGEet60mfhiNKYZ_NOxJbRL2Tfz7udgn62vVazASf1O_nkzJ-IC5zsrpboxHDOesiwuKKbsOUYSFqZfjYk2CWNKZDdFWZyHZjg005NwkAuF8CojdtJS0H-HDs2kf8txPKW_MFcv_AvyUT1kuqsg0lKhYGWV_jjPCFGbceWRhQ_PG9XuE7KQk9R5TeYa09VgOmZuApJNBtVKi4SKpOKIPScY99BihQgn03E9nlMOWd3wdp1SqXwX_r-nZU8SSlcERQQLfuGJqYmyA7enImQ_uR0tcog9hhHxDHH4LIrbdMk6eckBFrLyKeomnIhPTEt6OZFKgtCP3UWb3oD5N5-RMluKcohfb9Aulg8eT08D9ivjDNDYpmePgvq7ry2XiM2TnKPA9m6EkaIvXPnBMxbQUmVs_9bSPamgAFIG8e_lAz-Z0WrIZgzMvxcBD3hMJcwH0AGF7CxS8MXj5y-sJ7VcWmk5FusYxEFmCs77VFH9YIji7asl_Id7d6tmsMzpFgRI7MZtmhvHa3kgU_lAS7ZqkvDX3Pb4yPLaZw8cU_-hGBTIQ1nufIBzRKhiw9aQzzY9zF7bakcoILalgDnd76UvtNRQuVu2?></g></svg>