<?xml version="1.0" encoding="UTF-8" standalone="no"?><svg xmlns="http://www.w3.org/2000/svg" xmlns:xlink="http://www.w3.org/1999/xlink" contentScriptType="application/ecmascript" contentStyleType="text/css" height="9084px" preserveAspectRatio="none" style="width:1082px;height:9084px;" version="1.1" viewBox="0 0 1082 9084" width="1082px" zoomAndPan="magnify"><defs/><g><!--cluster java.util--><polygon fill="#FFFFFF" points="860,24,926,24,933,46.2969,986,46.2969,986,99,860,99,860,24" style="stroke: #000000; stroke-width: 2.0;"/><line style="stroke: #000000; stroke-width: 2.0;" x1="860" x2="933" y1="46.2969" y2="46.2969"/><text fill="#000000" font-family="sans-serif" font-size="14" font-weight="bold" lengthAdjust="spacingAndGlyphs" textLength="60" x="864" y="38.9951">java.util</text><!--cluster org.itsallcode.openfasttrace--><polygon fill="#FFFFFF" points="22,148,251,148,258,170.2969,1010,170.2969,1010,9083,22,9083,22,148" style="stroke: #000000; stroke-width: 2.0;"/><line style="stroke: #000000; stroke-width: 2.0;" x1="22" x2="258" y1="170.2969" y2="170.2969"/><text fill="#000000" font-family="sans-serif" font-size="14" font-weight="bold" lengthAdjust="spacingAndGlyphs" textLength="223" x="26" y="162.9951">org.itsallcode.openfasttrace</text><!--cluster importer--><polygon fill="#FFFFFF" points="46,814,120,814,127,836.2969,986,836.2969,986,9059,46,9059,46,814" style="stroke: #000000; stroke-width: 2.0;"/><line style="stroke: #000000; stroke-width: 2.0;" x1="46" x2="127" y1="836.2969" y2="836.2969"/><text fill="#000000" font-family="sans-serif" font-size="14" font-weight="bold" lengthAdjust="spacingAndGlyphs" textLength="68" x="50" y="828.9951">importer</text><!--cluster zip--><polygon fill="#FFFFFF" points="589,8960,618,8960,625,8982.2969,961,8982.2969,961,9035,589,9035,589,8960" style="stroke: #000000; stroke-width: 2.0;"/><line style="stroke: #000000; stroke-width: 2.0;" x1="589" x2="625" y1="8982.2969" y2="8982.2969"/><text fill="#000000" font-family="sans-serif" font-size="14" font-weight="bold" lengthAdjust="spacingAndGlyphs" textLength="23" x="593" y="8974.9951">zip</text><!--cluster core.serviceloader--><polygon fill="#FFFFFF" points="469,191,624,191,631,213.2969,986,213.2969,986,301,469,301,469,191" style="stroke: #000000; stroke-width: 2.0;"/><line style="stroke: #000000; stroke-width: 2.0;" x1="469" x2="631" y1="213.2969" y2="213.2969"/><text fill="#000000" font-family="sans-serif" font-size="14" font-weight="bold" lengthAdjust="spacingAndGlyphs" textLength="149" x="473" y="205.9951">core.serviceloader</text><!--class ServiceLoader--><rect fill="#F8F8F8" height="23.9688" style="stroke: #383838; stroke-width: 1.5;" width="94" x="876" y="59"/><text fill="#000000" font-family="sans-serif" font-size="12" lengthAdjust="spacingAndGlyphs" textLength="88" x="879" y="75.1387">ServiceLoader</text><!--class ImporterFactoryLoader--><rect fill="#F8F8F8" height="23.9688" style="stroke: #383838; stroke-width: 1.5;" width="148" x="821" y="879"/><text fill="#000000" font-family="sans-serif" font-size="12" lengthAdjust="spacingAndGlyphs" textLength="142" x="824" y="895.1387">ImporterFactoryLoader</text><!--class MultiFileImporter--><rect fill="#F8F8F8" height="23.9688" style="stroke: #383838; stroke-width: 1.5;" width="109" x="465.5" y="4949.5"/><text fill="#000000" font-family="sans-serif" font-size="12" lengthAdjust="spacingAndGlyphs" textLength="103" x="468.5" y="4965.6387">MultiFileImporter</text><!--class Importer--><rect fill="#F8F8F8" height="58.7422" style="stroke: #383838; stroke-width: 1.5;" width="125" x="609.5" y="4932"/><text fill="#000000" font-family="sans-serif" font-size="12" font-style="italic" lengthAdjust="spacingAndGlyphs" textLength="70" x="637" y="4948.1387">«interface»</text><text fill="#000000" font-family="sans-serif" font-size="12" font-style="italic" lengthAdjust="spacingAndGlyphs" textLength="54" x="645" y="4962.1074">Importer</text><line style="stroke: #383838; stroke-width: 1.5;" x1="610.5" x2="733.5" y1="4969.9375" y2="4969.9375"/><ellipse cx="620.5" cy="4981.8398" fill="#A6A6A6" rx="3" ry="3" style="stroke: #545454; stroke-width: 1.0;"/><text fill="#000000" font-family="sans-serif" font-size="11" lengthAdjust="spacingAndGlyphs" textLength="99" x="629.5" y="4984.1479">runImport() : void</text><!--class ImporterFactory--><rect fill="#F8F8F8" height="84.3516" style="stroke: #383838; stroke-width: 1.5;" width="455" x="181.5" y="849"/><text fill="#000000" font-family="sans-serif" font-size="12" font-style="italic" lengthAdjust="spacingAndGlyphs" textLength="66" x="376" y="865.1387">«abstract»</text><text fill="#000000" font-family="sans-serif" font-size="12" lengthAdjust="spacingAndGlyphs" textLength="99" x="359.5" y="879.1074">ImporterFactory</text><line style="stroke: #383838; stroke-width: 1.5;" x1="182.5" x2="635.5" y1="886.9375" y2="886.9375"/><ellipse cx="192.5" cy="898.8398" fill="#A6A6A6" rx="3" ry="3" style="stroke: #545454; stroke-width: 1.0;"/><text fill="#000000" font-family="sans-serif" font-size="11" lengthAdjust="spacingAndGlyphs" textLength="237" x="201.5" y="901.1479">supportsFile(inputFile: InputFile) : boolean</text><ellipse cx="192.5" cy="911.6445" fill="#A6A6A6" rx="3" ry="3" style="stroke: #545454; stroke-width: 1.0;"/><text fill="#000000" font-family="sans-serif" font-size="11" lengthAdjust="spacingAndGlyphs" textLength="429" x="201.5" y="913.9526">createImporter(inputFile: InputFile, listener: ImportEventListener) : Importer</text><ellipse cx="192.5" cy="924.4492" fill="#000000" rx="3" ry="3" style="stroke: #000000; stroke-width: 1.0;"/><text fill="#000000" font-family="sans-serif" font-size="11" lengthAdjust="spacingAndGlyphs" textLength="173" x="201.5" y="926.7573">getContext() : ImporterContext</text><!--class ImporterService--><rect fill="#F8F8F8" height="57.5781" style="stroke: #383838; stroke-width: 1.5;" width="369" x="129.5" y="8978"/><text fill="#000000" font-family="sans-serif" font-size="12" lengthAdjust="spacingAndGlyphs" textLength="98" x="265" y="8994.1387">ImporterService</text><line style="stroke: #383838; stroke-width: 1.5;" x1="130.5" x2="497.5" y1="9001.9688" y2="9001.9688"/><ellipse cx="140.5" cy="9013.8711" fill="#A6A6A6" rx="3" ry="3" style="stroke: #545454; stroke-width: 1.0;"/><text fill="#000000" font-family="sans-serif" font-size="11" lengthAdjust="spacingAndGlyphs" textLength="343" x="149.5" y="9016.1792">ImporterService(context: ImporterContext) : ImporterService</text><ellipse cx="140.5" cy="9026.6758" fill="#A6A6A6" rx="3" ry="3" style="stroke: #545454; stroke-width: 1.0;"/><text fill="#000000" font-family="sans-serif" font-size="11" lengthAdjust="spacingAndGlyphs" textLength="199" x="149.5" y="9028.9839">createImporter() : MultiFileImporter</text><!--class RegExMatchingImporterFactory--><rect fill="#F8F8F8" height="37.9375" style="stroke: #383838; stroke-width: 1.5;" width="200" x="770" y="4942.5"/><text fill="#000000" font-family="sans-serif" font-size="12" font-style="italic" lengthAdjust="spacingAndGlyphs" textLength="66" x="837" y="4958.6387">«abstract»</text><text fill="#000000" font-family="sans-serif" font-size="12" lengthAdjust="spacingAndGlyphs" textLength="194" x="773" y="4972.6074">RegExMatchingImporterFactory</text><!--class ImporterContext--><rect fill="#F8F8F8" height="57.5781" style="stroke: #383838; stroke-width: 1.5;" width="368" x="62" y="4932.5"/><text fill="#000000" font-family="sans-serif" font-size="12" lengthAdjust="spacingAndGlyphs" textLength="101" x="195.5" y="4948.6387">ImporterContext</text><line style="stroke: #383838; stroke-width: 1.5;" x1="63" x2="429" y1="4956.4688" y2="4956.4688"/><ellipse cx="73" cy="4968.3711" fill="#A6A6A6" rx="3" ry="3" style="stroke: #545454; stroke-width: 1.0;"/><text fill="#000000" font-family="sans-serif" font-size="11" lengthAdjust="spacingAndGlyphs" textLength="220" x="82" y="4970.6792">getImporterService() : ImporterService</text><ellipse cx="73" cy="4981.1758" fill="#A6A6A6" rx="3" ry="3" style="stroke: #545454; stroke-width: 1.0;"/><text fill="#000000" font-family="sans-serif" font-size="11" lengthAdjust="spacingAndGlyphs" textLength="342" x="82" y="4983.4839">setImporterService(importerService: ImporterService) : void</text><!--class ZipFileImporter--><rect fill="#F8F8F8" height="23.9688" style="stroke: #383838; stroke-width: 1.5;" width="100" x="605" y="8995"/><text fill="#000000" font-family="sans-serif" font-size="12" lengthAdjust="spacingAndGlyphs" textLength="94" x="608" y="9011.1387">ZipFileImporter</text><!--class ZipFileImporterFactory--><rect fill="#F8F8F8" height="23.9688" style="stroke: #383838; stroke-width: 1.5;" width="146" x="799" y="8995"/><text fill="#000000" font-family="sans-serif" font-size="12" lengthAdjust="spacingAndGlyphs" textLength="140" x="802" y="9011.1387">ZipFileImporterFactory</text><!--class InitializingServiceLoader--><rect fill="#F8F8F8" height="23.9688" style="stroke: #383838; stroke-width: 1.5;" width="154" x="816" y="243.5"/><text fill="#000000" font-family="sans-serif" font-size="12" lengthAdjust="spacingAndGlyphs" textLength="148" x="819" y="259.6387">InitializingServiceLoader</text><!--class Initializable--><rect fill="#F8F8F8" height="58.7422" style="stroke: #383838; stroke-width: 1.5;" width="227" x="485.5" y="226"/><text fill="#000000" font-family="sans-serif" font-size="12" font-style="italic" lengthAdjust="spacingAndGlyphs" textLength="70" x="564" y="242.1387">«interface»</text><text fill="#000000" font-family="sans-serif" font-size="12" font-style="italic" lengthAdjust="spacingAndGlyphs" textLength="70" x="564" y="256.1074">Initializable</text><line style="stroke: #383838; stroke-width: 1.5;" x1="486.5" x2="711.5" y1="263.9375" y2="263.9375"/><ellipse cx="496.5" cy="275.8398" fill="#A6A6A6" rx="3" ry="3" style="stroke: #545454; stroke-width: 1.0;"/><text fill="#000000" font-family="sans-serif" font-size="11" lengthAdjust="spacingAndGlyphs" textLength="201" x="505.5" y="278.1479">init(context: ImporterContext) : void</text><path d="M710.3493,9007 C737.2116,9007 769.8463,9007 798.7405,9007 " fill="none" style="stroke: #383838; stroke-width: 1.0;"/><polygon fill="#383838" points="705.0567,9007,714.0567,9011,710.0567,9007,714.0567,9003,705.0567,9007" style="stroke: #383838; stroke-width: 1.0;"/><text fill="#000000" font-family="sans-serif" font-size="13" lengthAdjust="spacingAndGlyphs" textLength="57" x="723.5" y="9000.0669">«create»</text><path d="M614.1256,939.9444 C653.1097,955.0669 682,973.394 682,994.5 C682,994.5 682,994.5 682,4870.5 C682,4898.1494 748.7141,4925.1496 802.6587,4942.4623 " fill="none" style="stroke: #383838; stroke-width: 1.0;"/><polygon fill="none" points="611.6709,946.5004,595.246,933.1129,616.4345,933.3357,611.6709,946.5004" style="stroke: #383838; stroke-width: 1.0;"/><path d="M870.6201,5000.7706 C870.8242,5016.8102 871,5035.5432 871,5052.5 C871,5052.5 871,5052.5 871,8912.5 C871,8942.0329 871.4944,8976.7545 871.7879,8994.7676 " fill="none" style="stroke: #383838; stroke-width: 1.0;"/><polygon fill="none" points="863.6195,5000.7707,870.333,4980.6727,877.618,5000.5706,863.6195,5000.7707" style="stroke: #383838; stroke-width: 1.0;"/><path d="M248.4121,4990.5753 C249.6907,5008.4295 251,5031.7726 251,5052.5 C251,5052.5 251,5052.5 251,8912.5 C251,8935.4035 263.9702,8956.978 278.1405,8973.7143 " fill="none" style="stroke: #383838; stroke-width: 1.0;"/><polygon fill="#383838" points="281.7618,8977.8629,278.8567,8968.4522,278.4737,8974.0961,272.8299,8973.7132,281.7618,8977.8629" style="stroke: #383838; stroke-width: 1.0;"/><text fill="#000000" font-family="sans-serif" font-size="13" lengthAdjust="spacingAndGlyphs" textLength="54" x="252" y="6987.0669">contains</text><path d="M480.8638,4975.7032 C449.6037,4989.8591 411,5014.9435 411,5052.5 C411,5052.5 411,5052.5 411,8912.5 C411,8939.8901 390.9117,8961.9216 369.0185,8977.7991 " fill="none" style="stroke: #383838; stroke-width: 1.0;"/><polygon fill="#383838" points="485.8108,4973.5249,475.962,4973.491,481.2348,4975.5398,479.1859,4980.8126,485.8108,4973.5249" style="stroke: #383838; stroke-width: 1.0;"/><text fill="#000000" font-family="sans-serif" font-size="13" lengthAdjust="spacingAndGlyphs" textLength="57" x="412" y="6987.0669">«create»</text><path d="M531.3448,4978.1913 C542.2218,4995.8451 557,5024.9075 557,5052.5 C557,5052.5 557,5052.5 557,8912.5 C557,8938.7796 582.0072,8933.8371 601,8952 C616.087,8966.4277 632.839,8983.6952 643.6243,8994.984 " fill="none" style="stroke: #383838; stroke-width: 1.0;"/><polygon fill="#383838" points="528.3959,4973.5253,529.8228,4983.2702,531.0671,4977.7519,536.5854,4978.9963,528.3959,4973.5253" style="stroke: #383838; stroke-width: 1.0;"/><text fill="#000000" font-family="sans-serif" font-size="13" lengthAdjust="spacingAndGlyphs" textLength="63" x="558" y="6987.0669">delegates</text><path d="M668.2526,5011.7049 C667.5338,5024.963 667,5039.2648 667,5052.5 C667,5052.5 667,5052.5 667,8912.5 C667,8942.2684 661.0674,8976.8943 657.5449,8994.8299 " fill="none" style="stroke: #383838; stroke-width: 1.0; stroke-dasharray: 7.0,7.0;"/><polygon fill="none" points="661.2882,5010.9182,669.5293,4991.3969,675.2606,5011.7967,661.2882,5010.9182" style="stroke: #383838; stroke-width: 1.0;"/><path d="M356.3299,933.0341 C340.8589,950.068 328,971.2263 328,994.5 C328,994.5 328,994.5 328,4870.5 C328,4893.6323 313.196,4913.5358 296.1683,4928.778 " fill="none" style="stroke: #383838; stroke-width: 1.0;"/><polygon fill="#383838" points="292.2721,4932.1558,301.6926,4929.2829,296.0501,4928.8806,296.4524,4923.2381,292.2721,4932.1558" style="stroke: #383838; stroke-width: 1.0;"/><text fill="#000000" font-family="sans-serif" font-size="13" lengthAdjust="spacingAndGlyphs" textLength="45" x="329" y="2929.0669">passes</text><path d="M717.955,255.5 C751.0086,255.5 786.0268,255.5 815.986,255.5 " fill="none" style="stroke: #383838; stroke-width: 1.0;"/><polygon fill="#383838" points="712.6681,255.5,721.6681,259.5,717.6681,255.5,721.6681,251.5,712.6681,255.5" style="stroke: #383838; stroke-width: 1.0;"/><text fill="#000000" font-family="sans-serif" font-size="13" lengthAdjust="spacingAndGlyphs" textLength="67" x="730.75" y="248.5669">«initialize»</text><path d="M463.1723,848.9893 C484.9478,827.1837 505,798.4341 505,766.5 C505,348.5 505,348.5 505,348.5 C505,328.9061 515.4489,312.0398 529.3793,298.2604 " fill="none" style="stroke: #383838; stroke-width: 1.0; stroke-dasharray: 7.0,7.0;"/><polygon fill="none" points="525.1106,292.7005,544.8645,285.0333,534.2035,303.3457,525.1106,292.7005" style="stroke: #383838; stroke-width: 1.0;"/><path d="M893.2994,272.9398 C893.594,291.6274 894,322.1606 894,348.5 C894,348.5 894,348.5 894,766.5 C894,807.7852 894.5567,856.7688 894.8393,878.9817 " fill="none" style="stroke: #383838; stroke-width: 1.0;"/><polygon fill="#383838" points="893.2121,267.5382,889.3582,276.6017,893.293,272.5375,897.3571,276.4723,893.2121,267.5382" style="stroke: #383838; stroke-width: 1.0;"/><text fill="#000000" font-family="sans-serif" font-size="13" lengthAdjust="spacingAndGlyphs" textLength="21" x="912.5" y="547.0669">get</text><text fill="#000000" font-family="sans-serif" font-size="13" lengthAdjust="spacingAndGlyphs" textLength="56" x="895" y="562.1997">available</text><text fill="#000000" font-family="sans-serif" font-size="13" lengthAdjust="spacingAndGlyphs" textLength="55" x="895.5" y="577.3325">factories</text><path d="M641.7726,891 C706.6686,891 772.5389,891 820.8258,891 " fill="none" style="stroke: #383838; stroke-width: 1.0;"/><polygon fill="#383838" points="636.7028,891,645.7028,895,641.7028,891,645.7028,887,636.7028,891" style="stroke: #383838; stroke-width: 1.0;"/><text fill="#000000" font-family="sans-serif" font-size="13" lengthAdjust="spacingAndGlyphs" textLength="148" x="654.75" y="869.0669">find factory responsible</text><text fill="#000000" font-family="sans-serif" font-size="13" lengthAdjust="spacingAndGlyphs" textLength="100" x="678.75" y="884.1997">for input format</text><path d="M934.5817,83.2412 C942.8458,92.0214 954.1879,104.1648 964,115 C973.9349,125.9708 978.6994,127.1251 986,140 C1012.5883,186.8892 1023,201.597 1023,255.5 C1023,255.5 1023,255.5 1023,8912.5 C1023,8956.1851 977.025,8980.4328 935.8119,8993.3929 " fill="none" style="stroke: #383838; stroke-width: 1.0;"/><polygon fill="#383838" points="930.8129,8994.918,940.5884,8996.1175,935.5953,8993.4589,938.2538,8988.4657,930.8129,8994.918" style="stroke: #383838; stroke-width: 1.0;"/><text fill="#000000" font-family="sans-serif" font-size="13" lengthAdjust="spacingAndGlyphs" textLength="57" x="1024" y="4650.0669">«create»</text><path d="M920.2071,88.1761 C914.2129,125.0408 900.2361,210.9983 895.015,243.1079 " fill="none" style="stroke: #383838; stroke-width: 1.0;"/><polygon fill="#383838" points="921.0316,83.1056,915.6391,91.347,920.2292,88.0408,923.5354,92.6309,921.0316,83.1056" style="stroke: #383838; stroke-width: 1.0;"/><text fill="#000000" font-family="sans-serif" font-size="13" lengthAdjust="spacingAndGlyphs" textLength="39" x="916" y="128.0669">«use»</text></g></svg>