<?xml version="1.0" encoding="UTF-8" standalone="no"?><svg xmlns="http://www.w3.org/2000/svg" xmlns:xlink="http://www.w3.org/1999/xlink" contentScriptType="application/ecmascript" contentStyleType="text/css" height="651px" preserveAspectRatio="none" style="width:913px;height:651px;" version="1.1" viewBox="0 0 913 651" width="913px" zoomAndPan="magnify"><defs/><g><!--cluster ##113--><!--class HtmlSection--><rect fill="#F8F8F8" height="44.7734" style="stroke: #383838; stroke-width: 1.5;" width="225" x="38.5" y="442"/><text fill="#000000" font-family="sans-serif" font-size="12" lengthAdjust="spacingAndGlyphs" textLength="75" x="113.5" y="458.1387">HtmlSection</text><line style="stroke: #383838; stroke-width: 1.5;" x1="39.5" x2="262.5" y1="465.9688" y2="465.9688"/><ellipse cx="49.5" cy="477.8711" fill="#A6A6A6" rx="3" ry="3" style="stroke: #545454; stroke-width: 1.0;"/><text fill="#000000" font-family="sans-serif" font-size="11" lengthAdjust="spacingAndGlyphs" textLength="199" x="58.5" y="480.1792">HtmlSection(id: String, title: String)</text><!--class HtmlSpecificationItem--><rect fill="#F8F8F8" height="44.7734" style="stroke: #383838; stroke-width: 1.5;" width="319" x="482.5" y="442"/><text fill="#000000" font-family="sans-serif" font-size="12" lengthAdjust="spacingAndGlyphs" textLength="135" x="574.5" y="458.1387">HtmlSpecificationItem</text><line style="stroke: #383838; stroke-width: 1.5;" x1="483.5" x2="800.5" y1="465.9688" y2="465.9688"/><ellipse cx="493.5" cy="477.8711" fill="#A6A6A6" rx="3" ry="3" style="stroke: #545454; stroke-width: 1.0;"/><text fill="#000000" font-family="sans-serif" font-size="11" lengthAdjust="spacingAndGlyphs" textLength="293" x="502.5" y="480.1792">HtmlSpecificationItem(LinkedSpecificationItem item)</text><!--class HtmlView--><rect fill="#F8F8F8" height="44.7734" style="stroke: #383838; stroke-width: 1.5;" width="149" x="298.5" y="442"/><text fill="#000000" font-family="sans-serif" font-size="12" lengthAdjust="spacingAndGlyphs" textLength="56" x="345" y="458.1387">HtmlView</text><line style="stroke: #383838; stroke-width: 1.5;" x1="299.5" x2="446.5" y1="465.9688" y2="465.9688"/><ellipse cx="309.5" cy="477.8711" fill="#A6A6A6" rx="3" ry="3" style="stroke: #545454; stroke-width: 1.0;"/><text fill="#000000" font-family="sans-serif" font-size="11" lengthAdjust="spacingAndGlyphs" textLength="123" x="318.5" y="480.1792">HtmlView(title: String)</text><!--class Viewable--><rect fill="#F8F8F8" height="71.5469" style="stroke: #383838; stroke-width: 1.5;" width="124" x="449" y="8"/><text fill="#000000" font-family="sans-serif" font-size="12" font-style="italic" lengthAdjust="spacingAndGlyphs" textLength="70" x="476" y="24.1387">«interface»</text><text fill="#000000" font-family="sans-serif" font-size="12" font-style="italic" lengthAdjust="spacingAndGlyphs" textLength="56" x="483" y="38.1074">Viewable</text><line style="stroke: #383838; stroke-width: 1.5;" x1="450" x2="572" y1="45.9375" y2="45.9375"/><ellipse cx="460" cy="57.8398" fill="#A6A6A6" rx="3" ry="3" style="stroke: #545454; stroke-width: 1.0;"/><text fill="#000000" font-family="sans-serif" font-size="11" lengthAdjust="spacingAndGlyphs" textLength="46" x="469" y="60.1479">render()</text><ellipse cx="460" cy="70.6445" fill="#A6A6A6" rx="3" ry="3" style="stroke: #545454; stroke-width: 1.0;"/><text fill="#000000" font-family="sans-serif" font-size="11" lengthAdjust="spacingAndGlyphs" textLength="98" x="469" y="72.9526">render(level : int)</text><!--class ViewableContainer--><rect fill="#F8F8F8" height="97.1563" style="stroke: #383838; stroke-width: 1.5;" width="157" x="364.5" y="141"/><text fill="#000000" font-family="sans-serif" font-size="12" font-style="italic" lengthAdjust="spacingAndGlyphs" textLength="70" x="408" y="157.1387">«interface»</text><text fill="#000000" font-family="sans-serif" font-size="12" font-style="italic" lengthAdjust="spacingAndGlyphs" textLength="117" x="384.5" y="171.1074">ViewableContainer</text><line style="stroke: #383838; stroke-width: 1.5;" x1="365.5" x2="520.5" y1="178.9375" y2="178.9375"/><ellipse cx="375.5" cy="190.8398" fill="#A6A6A6" rx="3" ry="3" style="stroke: #545454; stroke-width: 1.0;"/><text fill="#000000" font-family="sans-serif" font-size="11" lengthAdjust="spacingAndGlyphs" textLength="109" x="384.5" y="193.1479">add(Viewable child)</text><polygon fill="#EAEAEA" points="375.5,198.6445,379.5,202.6445,375.5,206.6445,371.5,202.6445" style="stroke: #8C8C8C; stroke-width: 1.0;"/><text fill="#000000" font-family="sans-serif" font-size="11" lengthAdjust="spacingAndGlyphs" textLength="131" x="384.5" y="205.9526">renderBeforeChildren()</text><polygon fill="#EAEAEA" points="375.5,211.4492,379.5,215.4492,375.5,219.4492,371.5,215.4492" style="stroke: #8C8C8C; stroke-width: 1.0;"/><text fill="#000000" font-family="sans-serif" font-size="11" lengthAdjust="spacingAndGlyphs" textLength="93" x="384.5" y="218.7573">renderChildren()</text><polygon fill="#EAEAEA" points="375.5,224.2539,379.5,228.2539,375.5,232.2539,371.5,228.2539" style="stroke: #8C8C8C; stroke-width: 1.0;"/><text fill="#000000" font-family="sans-serif" font-size="11" lengthAdjust="spacingAndGlyphs" textLength="120" x="384.5" y="231.562">renderAfterChildren()</text><!--class AbstractViewContainer--><rect fill="#F8F8F8" height="79.5469" style="stroke: #383838; stroke-width: 1.5;" width="171" x="287.5" y="299"/><text fill="#000000" font-family="sans-serif" font-size="12" font-style="italic" lengthAdjust="spacingAndGlyphs" textLength="66" x="340" y="315.1387">«abstract»</text><text fill="#000000" font-family="sans-serif" font-size="12" font-style="italic" lengthAdjust="spacingAndGlyphs" textLength="142" x="302" y="329.1074">AbstractViewContainer</text><line style="stroke: #383838; stroke-width: 1.5;" x1="288.5" x2="457.5" y1="336.9375" y2="336.9375"/><polygon fill="none" points="298.5,343.8398,302.5,347.8398,298.5,351.8398,294.5,347.8398" style="stroke: #8C8C8C; stroke-width: 1.0;"/><text fill="#000000" font-family="sans-serif" font-size="11" lengthAdjust="spacingAndGlyphs" textLength="145" x="307.5" y="351.1479">children : List&lt;Viewable&gt;</text><line style="stroke: #383838; stroke-width: 1.5;" x1="288.5" x2="457.5" y1="357.7422" y2="357.7422"/><ellipse cx="298.5" cy="369.6445" fill="#A6A6A6" rx="3" ry="3" style="stroke: #545454; stroke-width: 1.0;"/><text fill="#000000" font-family="sans-serif" font-size="11" lengthAdjust="spacingAndGlyphs" textLength="109" x="307.5" y="371.9526">add(Viewable child)</text><!--class HtmlViewFactory--><rect fill="#F8F8F8" height="23.9688" style="stroke: #383838; stroke-width: 1.5;" width="108" x="319" y="596"/><text fill="#000000" font-family="sans-serif" font-size="12" lengthAdjust="spacingAndGlyphs" textLength="102" x="322" y="612.1387">HtmlViewFactory</text><!--class AbstractViewFactory--><rect fill="#F8F8F8" height="84.3516" style="stroke: #383838; stroke-width: 1.5;" width="450" x="462" y="566"/><text fill="#000000" font-family="sans-serif" font-size="12" font-style="italic" lengthAdjust="spacingAndGlyphs" textLength="66" x="654" y="582.1387">«abstract»</text><text fill="#000000" font-family="sans-serif" font-size="12" font-style="italic" lengthAdjust="spacingAndGlyphs" textLength="128" x="623" y="596.1074">AbstractViewFactory</text><line style="stroke: #383838; stroke-width: 1.5;" x1="463" x2="911" y1="603.9375" y2="603.9375"/><ellipse cx="473" cy="615.8398" fill="#A6A6A6" rx="3" ry="3" style="stroke: #545454; stroke-width: 1.0;"/><text fill="#000000" font-family="sans-serif" font-size="11" lengthAdjust="spacingAndGlyphs" textLength="250" x="482" y="618.1479">createView(title: String) : ViewableContainer</text><ellipse cx="473" cy="628.6445" fill="#A6A6A6" rx="3" ry="3" style="stroke: #545454; stroke-width: 1.0;"/><text fill="#000000" font-family="sans-serif" font-size="11" lengthAdjust="spacingAndGlyphs" textLength="326" x="482" y="630.9526">createSection(id: String, title: String) : ViewableContainer</text><ellipse cx="473" cy="641.4492" fill="#A6A6A6" rx="3" ry="3" style="stroke: #545454; stroke-width: 1.0;"/><text fill="#000000" font-family="sans-serif" font-size="11" lengthAdjust="spacingAndGlyphs" textLength="424" x="482" y="643.7573">createSpecificationItem(item: LinkedSpecificationItem) : ViewableContainer</text><!--class ContentType--><rect fill="#F8F8F8" height="57.5781" style="stroke: #383838; stroke-width: 1.5;" width="91" x="608.5" y="15"/><text fill="#000000" font-family="sans-serif" font-size="12" lengthAdjust="spacingAndGlyphs" textLength="79" x="614.5" y="31.1387">ContentType</text><line style="stroke: #383838; stroke-width: 1.5;" x1="609.5" x2="698.5" y1="38.9688" y2="38.9688"/><ellipse cx="619.5" cy="50.8711" fill="none" rx="3" ry="3" style="stroke: #545454; stroke-width: 1.0;"/><text fill="#000000" font-family="sans-serif" font-size="11" lengthAdjust="spacingAndGlyphs" textLength="65" x="628.5" y="53.1792">PLAIN_TEXT</text><ellipse cx="619.5" cy="63.6758" fill="none" rx="3" ry="3" style="stroke: #545454; stroke-width: 1.0;"/><text fill="#000000" font-family="sans-serif" font-size="11" lengthAdjust="spacingAndGlyphs" textLength="30" x="628.5" y="65.9839">HTML</text><path d="M485.5451,98.466 C479.0605,112.3411 472.1325,127.165 465.7904,140.7352 " fill="none" style="stroke: #383838; stroke-width: 1.0;"/><polygon fill="none" points="479.2065,95.4956,494.0161,80.3405,491.8898,101.4232,479.2065,95.4956" style="stroke: #383838; stroke-width: 1.0;"/><path d="M411.6061,256.5484 C404.8696,270.9357 397.953,285.7076 391.8688,298.7016 " fill="none" style="stroke: #383838; stroke-width: 1.0; stroke-dasharray: 7.0,7.0;"/><polygon fill="none" points="405.4525,253.1828,420.273,238.0384,418.1315,259.1195,405.4525,253.1828" style="stroke: #383838; stroke-width: 1.0;"/><path d="M373,399.0879 C373,414.3864 373,429.8963 373,441.9714 " fill="none" style="stroke: #383838; stroke-width: 1.0;"/><polygon fill="none" points="366.0001,399.0541,373,379.054,380.0001,399.054,366.0001,399.0541" style="stroke: #383838; stroke-width: 1.0;"/><path d="M284.4739,389.0452 C252.0324,407.3848 216.9179,427.2356 190.8513,441.9714 " fill="none" style="stroke: #383838; stroke-width: 1.0;"/><polygon fill="none" points="281.292,382.8028,302.1474,379.054,288.1818,394.9902,281.292,382.8028" style="stroke: #383838; stroke-width: 1.0;"/><path d="M528.2842,99.481 C557.3789,192.8727 614.9205,377.577 634.938,441.8316 " fill="none" style="stroke: #383838; stroke-width: 1.0; stroke-dasharray: 7.0,7.0;"/><polygon fill="none" points="521.5479,101.3925,522.2824,80.2155,534.9143,97.2283,521.5479,101.3925" style="stroke: #383838; stroke-width: 1.0;"/><path d="M427.2754,608 C432.0364,608 436.7974,608 441.5583,608 " fill="none" style="stroke: #383838; stroke-width: 1.0;"/><polygon fill="none" points="441.7701,600.9999,461.7701,608,441.77,614.9999,441.7701,600.9999" style="stroke: #383838; stroke-width: 1.0;"/><path d="M591.8622,489.4226 C551.8198,509.5448 494.4271,538.8748 445,566 C427.239,575.7471 407.3709,587.3944 393.0121,595.9484 " fill="none" style="stroke: #383838; stroke-width: 1.0;"/><polygon fill="#383838" points="596.6577,487.0151,586.8197,487.4782,592.1892,489.2584,590.409,494.6278,596.6577,487.0151" style="stroke: #383838; stroke-width: 1.0;"/><text fill="#000000" font-family="sans-serif" font-size="13" lengthAdjust="spacingAndGlyphs" textLength="41" x="531" y="532.0669">create</text><path d="M373,492.4933 C373,523.869 373,573.3043 373,595.9477 " fill="none" style="stroke: #383838; stroke-width: 1.0;"/><polygon fill="#383838" points="373,487.238,369,496.238,373,492.238,377,496.238,373,487.238" style="stroke: #383838; stroke-width: 1.0;"/><text fill="#000000" font-family="sans-serif" font-size="13" lengthAdjust="spacingAndGlyphs" textLength="41" x="374" y="532.0669">create</text><path d="M190.4574,490.0051 C238.7078,521.194 318.3835,572.6961 354.3546,595.9477 " fill="none" style="stroke: #383838; stroke-width: 1.0;"/><polygon fill="#383838" points="186.1766,487.238,191.5636,495.483,190.3757,489.9523,195.9065,488.7644,186.1766,487.238" style="stroke: #383838; stroke-width: 1.0;"/><text fill="#000000" font-family="sans-serif" font-size="13" lengthAdjust="spacingAndGlyphs" textLength="41" x="256" y="532.0669">create</text></g></svg>