<?xml version="1.0" encoding="UTF-8" standalone="no"?>
<!-- Creator: fig2dev Version 3.2 Patchlevel 5e -->

<!-- CreationDate: Sun Apr 10 12:45:01 2016 -->

<!-- Magnification: 1.050 -->

<svg
   width="9.4in"
   height="3.3in"
   viewBox="2744 2980 11282 3960"
   version="1.1"
   id="svg20"
   sodipodi:docname="openfasttrace_logo2.svg"
   inkscape:version="1.1.2 (0a00cf5339, 2022-02-04)"
   inkscape:export-filename="/home/sebastian/git/openfasttrace/src/main/resources/openfasttrace_logo.png"
   inkscape:export-xdpi="96"
   inkscape:export-ydpi="96"
   xmlns:inkscape="http://www.inkscape.org/namespaces/inkscape"
   xmlns:sodipodi="http://sodipodi.sourceforge.net/DTD/sodipodi-0.dtd"
   xmlns="http://www.w3.org/2000/svg"
   xmlns:svg="http://www.w3.org/2000/svg"
   xmlns:rdf="http://www.w3.org/1999/02/22-rdf-syntax-ns#"
   xmlns:cc="http://creativecommons.org/ns#"
   xmlns:dc="http://purl.org/dc/elements/1.1/">
  <metadata
     id="metadata26">
    <rdf:RDF>
      <cc:Work
         rdf:about="">
        <dc:format>image/svg+xml</dc:format>
        <dc:type
           rdf:resource="http://purl.org/dc/dcmitype/StillImage" />
      </cc:Work>
    </rdf:RDF>
  </metadata>
  <defs
     id="defs24" />
  <sodipodi:namedview
     pagecolor="#ffffff"
     bordercolor="#666666"
     borderopacity="1"
     objecttolerance="10"
     gridtolerance="10"
     guidetolerance="10"
     inkscape:pageopacity="0"
     inkscape:pageshadow="2"
     inkscape:window-width="3366"
     inkscape:window-height="1376"
     id="namedview22"
     showgrid="false"
     inkscape:zoom="0.42331562"
     inkscape:cx="-317.72983"
     inkscape:cy="159.45549"
     inkscape:window-x="74"
     inkscape:window-y="27"
     inkscape:window-maximized="1"
     inkscape:current-layer="svg20"
     inkscape:pagecheckerboard="0"
     inkscape:document-units="in" />
  <path
     id="polygon4"
     style="fill:#58c8fd;fill-opacity:1;stroke:#0a5ddd;stroke-width:10.4278;stroke-linecap:butt;stroke-linejoin:miter;stroke-opacity:1"
     d="M 92.480469 15.082031 L 10.109375 206.24023 L 71.888672 301.71875 L 216.21289 301.71875 L 298.67188 110.66016 L 257.39844 15.082031 L 92.480469 15.082031 z M 133.75391 110.66016 L 216.21289 110.66016 L 174.93945 206.24023 L 92.480469 206.24023 L 133.75391 110.66016 z "
     transform="matrix(12.502217,0,0,12.502217,2744,2979.6489)" />
  <polygon
     id="polygon6"
     style="fill:#ffffff;stroke:#0a5ddd;stroke-width:111;stroke-linecap:butt;stroke-linejoin:miter;stroke-opacity:1"
     points="11811,3543 10866,3543 11574,4960 10866,6377 11811,6377 12519,4960 "
     transform="matrix(1.090922,0,0,1.2645031,-737.28966,-1311.9354)" />
  <polygon
     id="polygon8"
     style="fill:#58c8fd;fill-opacity:1;stroke:#0a5ddd;stroke-width:111;stroke-linecap:butt;stroke-linejoin:miter;stroke-opacity:1"
     points="8503,4488 9448,4488 8976,3543 7086,3543 5669,6377 6614,6377 7086,5433 8031,5433 "
     transform="matrix(1.090922,0,0,1.2645031,-737.28966,-1311.9354)" />
  <polyline
     id="polyline10"
     style="fill:none;stroke:#0a5ddd;stroke-width:111;stroke-linecap:butt;stroke-linejoin:miter;stroke-opacity:1"
     points="7559,4488 8503,4488 "
     transform="matrix(1.090922,0,0,1.2645031,-737.28966,-1311.9354)" />
  <polygon
     id="polygon14"
     style="fill:#58c8fd;fill-opacity:1;stroke:#0a5ddd;stroke-width:111;stroke-linecap:butt;stroke-linejoin:miter;stroke-opacity:1"
     points="9448,6377 8503,6377 9448,4488 8976,3543 10866,3543 11338,4488 10393,4488 "
     transform="matrix(1.090922,0,0,1.2645031,-737.28966,-1311.9354)" />
  <polygon
     id="polygon16"
     style="fill:#ffffff;stroke:#0a5ddd;stroke-width:111;stroke-linecap:butt;stroke-linejoin:miter;stroke-opacity:1"
     points="12755,3543 11811,3543 12519,4960 11811,6377 12755,6377 13464,4960 "
     transform="matrix(1.090922,0,0,1.2645031,-737.28966,-1311.9354)" />
</svg>
